<svg width="237" height="68" viewBox="0 0 237 68" fill="none" xmlns="http://www.w3.org/2000/svg">
<path d="M235.189 60.1578C235.189 63.7816 232.185 66.717 228.469 66.717H8.54071C4.82642 66.717 1.81152 63.7816 1.81152 60.1578V7.85073C1.81152 4.22864 4.82642 1.28302 8.54071 1.28302H228.467C232.185 1.28302 235.188 4.22864 235.188 7.85073L235.189 60.1578Z" fill="black"/>
<path d="M227.759 1.36212C231.806 1.36212 235.099 4.5645 235.099 8.5V59.5C235.099 63.4355 231.806 66.6379 227.759 66.6379H9.24074C5.19378 66.6379 1.9007 63.4355 1.9007 59.5V8.5C1.9007 4.5645 5.19378 1.36212 9.24074 1.36212H227.759ZM227.759 0H9.24074C4.43552 0 0.5 3.82713 0.5 8.5V59.5C0.5 64.1729 4.43552 68 9.24074 68H227.759C232.564 68 236.5 64.1729 236.5 59.5V8.5C236.5 3.82713 232.564 0 227.759 0Z" fill="#A6A6A6"/>
<path d="M53.1684 33.6328C53.1177 28.1537 57.7817 25.4881 57.995 25.364C55.3536 21.6189 51.2594 21.1072 49.8207 21.0664C46.3821 20.7145 43.0466 23.0673 41.2949 23.0673C39.5083 23.0673 36.8109 21.1004 33.9038 21.1582C30.1627 21.2143 26.6629 23.3206 24.7435 26.5914C20.7822 33.2605 23.7365 43.061 27.5318 48.4517C29.4303 51.0918 31.6487 54.0396 34.5523 53.9359C37.3931 53.822 38.4542 52.1747 41.8823 52.1747C45.279 52.1747 46.2754 53.9359 49.2368 53.8696C52.2856 53.822 54.205 51.2176 56.0371 48.5537C58.231 45.5277 59.1121 42.5476 59.147 42.3946C59.0754 42.3708 53.2261 40.1999 53.1684 33.6328Z" fill="white"/>
<path d="M47.5743 17.5202C49.1022 15.6621 50.1476 13.1342 49.8574 10.5689C47.646 10.6641 44.8804 12.0564 43.2878 13.8737C41.8788 15.4751 40.6202 18.0999 40.9453 20.5683C43.4294 20.7485 45.98 19.3494 47.5743 17.5202Z" fill="white"/>
<path d="M86.2471 17.0153C86.2471 19.0162 85.63 20.5224 84.3976 21.5339C83.256 22.4672 81.6337 22.9347 79.5325 22.9347C78.4906 22.9347 77.599 22.8905 76.8525 22.8021V11.8694C77.8263 11.7164 78.8751 11.6382 80.008 11.6382C82.0096 11.6382 83.5182 12.0615 84.5357 12.9081C85.6755 13.8652 86.2471 15.2337 86.2471 17.0153ZM84.3154 17.0646C84.3154 15.7675 83.9623 14.773 83.256 14.0794C82.5498 13.3875 81.5184 13.0407 80.16 13.0407C79.5832 13.0407 79.0919 13.0781 78.6846 13.1563V21.4676C78.9101 21.5016 79.3227 21.5169 79.9223 21.5169C81.3243 21.5169 82.4064 21.1378 83.1686 20.3796C83.9308 19.6214 84.3154 18.5164 84.3154 17.0646Z" fill="white"/>
<path d="M96.4892 18.7629C96.4892 19.9954 96.1273 21.0052 95.4036 21.7974C94.6449 22.6117 93.6397 23.018 92.3845 23.018C91.1748 23.018 90.2116 22.6287 89.4931 21.8467C88.7763 21.0664 88.418 20.0821 88.418 18.8955C88.418 17.6545 88.7868 16.6362 89.528 15.8457C90.2693 15.0552 91.2657 14.6591 92.5209 14.6591C93.7306 14.6591 94.7026 15.0484 95.4385 15.8287C96.1378 16.5869 96.4892 17.5661 96.4892 18.7629ZM94.5889 18.8207C94.5889 18.0812 94.4246 17.4471 94.0977 16.9184C93.7131 16.2792 93.1659 15.9596 92.4545 15.9596C91.7185 15.9596 91.1591 16.2792 90.7745 16.9184C90.4458 17.4471 90.2832 18.0914 90.2832 18.853C90.2832 19.5925 90.4476 20.2266 90.7745 20.7553C91.1713 21.3945 91.7237 21.7141 92.437 21.7141C93.1362 21.7141 93.6851 21.3894 94.0802 20.7383C94.4194 20.1994 94.5889 19.5602 94.5889 18.8207Z" fill="white"/>
<path d="M110.223 14.8223L107.645 22.8361H105.966L104.898 19.3562C104.627 18.4875 104.407 17.6239 104.236 16.7671H104.202C104.043 17.6477 103.823 18.5096 103.54 19.3562L102.405 22.8361H100.708L98.2832 14.8223H100.166L101.098 18.632C101.323 19.533 101.509 20.3915 101.657 21.2041H101.69C101.827 20.5343 102.052 19.6809 102.37 18.649L103.54 14.824H105.033L106.153 18.5674C106.424 19.4803 106.645 20.3592 106.814 21.2058H106.865C106.989 20.3813 107.176 19.5024 107.424 18.5674L108.424 14.824H110.223V14.8223Z" fill="white"/>
<path d="M119.72 22.8361H117.888V18.2461C117.888 16.8317 117.336 16.1245 116.228 16.1245C115.684 16.1245 115.245 16.3183 114.904 16.7076C114.567 17.0969 114.396 17.5559 114.396 18.0812V22.8344H112.563V17.1122C112.563 16.4084 112.541 15.6451 112.497 14.8189H114.107L114.193 16.0718H114.243C114.457 15.6825 114.775 15.3612 115.193 15.1045C115.689 14.8053 116.245 14.654 116.853 14.654C117.623 14.654 118.262 14.8954 118.771 15.3799C119.404 15.9732 119.72 16.8589 119.72 18.0353V22.8361Z" fill="white"/>
<path d="M124.773 22.8361H122.942V11.1452H124.773V22.8361Z" fill="white"/>
<path d="M135.559 18.7629C135.559 19.9954 135.197 21.0052 134.473 21.7974C133.714 22.6117 132.707 23.018 131.454 23.018C130.242 23.018 129.279 22.6287 128.562 21.8467C127.846 21.0664 127.487 20.0821 127.487 18.8955C127.487 17.6545 127.856 16.6362 128.597 15.8457C129.339 15.0552 130.335 14.6591 131.588 14.6591C132.8 14.6591 133.77 15.0484 134.508 15.8287C135.207 16.5869 135.559 17.5661 135.559 18.7629ZM133.657 18.8207C133.657 18.0812 133.492 17.4471 133.165 16.9184C132.782 16.2792 132.234 15.9596 131.524 15.9596C130.786 15.9596 130.227 16.2792 129.844 16.9184C129.515 17.4471 129.353 18.0914 129.353 18.853C129.353 19.5925 129.517 20.2266 129.844 20.7553C130.241 21.3945 130.793 21.7141 131.506 21.7141C132.206 21.7141 132.753 21.3894 133.148 20.7383C133.489 20.1994 133.657 19.5602 133.657 18.8207Z" fill="white"/>
<path d="M144.425 22.8361H142.78L142.644 21.913H142.593C142.031 22.6491 141.228 23.018 140.186 23.018C139.408 23.018 138.779 22.7749 138.305 22.2921C137.875 21.8535 137.66 21.3078 137.66 20.6601C137.66 19.6809 138.08 18.9346 138.924 18.4178C139.767 17.901 140.952 17.6477 142.478 17.6596V17.51C142.478 16.4543 141.908 15.9273 140.767 15.9273C139.954 15.9273 139.237 16.1262 138.618 16.5206L138.246 15.351C139.011 14.8903 139.957 14.6591 141.073 14.6591C143.226 14.6591 144.307 15.7641 144.307 17.9741V20.9253C144.307 21.726 144.347 22.3635 144.425 22.8361ZM142.523 20.0821V18.8462C140.503 18.8122 139.492 19.3511 139.492 20.4612C139.492 20.8794 139.608 21.1922 139.844 21.4013C140.08 21.6104 140.38 21.7141 140.739 21.7141C141.141 21.7141 141.517 21.59 141.859 21.3435C142.204 21.0953 142.415 20.7808 142.494 20.3949C142.513 20.3082 142.523 20.2028 142.523 20.0821Z" fill="white"/>
<path d="M154.835 22.8361H153.21L153.124 21.5492H153.073C152.554 22.5284 151.67 23.018 150.427 23.018C149.434 23.018 148.607 22.6389 147.951 21.8807C147.296 21.1225 146.969 20.1382 146.969 18.9295C146.969 17.6324 147.324 16.5818 148.037 15.7794C148.727 15.0314 149.573 14.6574 150.58 14.6574C151.687 14.6574 152.461 15.0195 152.902 15.7454H152.937V11.1452H154.771V20.6771C154.771 21.4574 154.792 22.1765 154.835 22.8361ZM152.937 19.4565V18.1203C152.937 17.8891 152.919 17.7021 152.886 17.5593C152.783 17.1309 152.561 16.7705 152.224 16.4798C151.883 16.1891 151.472 16.0429 150.998 16.0429C150.315 16.0429 149.78 16.3064 149.386 16.8351C148.997 17.3638 148.799 18.0387 148.799 18.8632C148.799 19.6554 148.986 20.298 149.362 20.7927C149.759 21.3197 150.294 21.5832 150.963 21.5832C151.565 21.5832 152.045 21.3639 152.411 20.9236C152.764 20.5173 152.937 20.0277 152.937 19.4565Z" fill="white"/>
<path d="M170.505 18.7629C170.505 19.9954 170.143 21.0052 169.419 21.7974C168.66 22.6117 167.657 23.018 166.4 23.018C165.192 23.018 164.229 22.6287 163.509 21.8467C162.792 21.0664 162.434 20.0821 162.434 18.8955C162.434 17.6545 162.802 16.6362 163.544 15.8457C164.285 15.0552 165.281 14.6591 166.538 14.6591C167.746 14.6591 168.72 15.0484 169.454 15.8287C170.153 16.5869 170.505 17.5661 170.505 18.7629ZM168.606 18.8207C168.606 18.0812 168.442 17.4471 168.115 16.9184C167.729 16.2792 167.183 15.9596 166.47 15.9596C165.736 15.9596 165.176 16.2792 164.79 16.9184C164.461 17.4471 164.299 18.0914 164.299 18.853C164.299 19.5925 164.463 20.2266 164.79 20.7553C165.187 21.3945 165.739 21.7141 166.453 21.7141C167.152 21.7141 167.703 21.3894 168.098 20.7383C168.435 20.1994 168.606 19.5602 168.606 18.8207Z" fill="white"/>
<path d="M180.355 22.8361H178.525V18.2461C178.525 16.8317 177.973 16.1245 176.863 16.1245C176.319 16.1245 175.88 16.3183 175.541 16.7076C175.202 17.0969 175.032 17.5559 175.032 18.0812V22.8344H173.198V17.1122C173.198 16.4084 173.177 15.6451 173.134 14.8189H174.742L174.828 16.0718H174.878C175.093 15.6825 175.412 15.3612 175.828 15.1045C176.326 14.8053 176.88 14.654 177.49 14.654C178.258 14.654 178.897 14.8954 179.406 15.3799C180.041 15.9732 180.355 16.8589 180.355 18.0353V22.8361Z" fill="white"/>
<path d="M192.685 16.1568H190.668V20.0498C190.668 21.0392 191.026 21.5339 191.736 21.5339C192.064 21.5339 192.337 21.5067 192.552 21.4506L192.599 22.8021C192.237 22.9347 191.762 23.001 191.176 23.001C190.453 23.001 189.89 22.7868 189.482 22.3584C189.073 21.93 188.87 21.2092 188.87 20.1977V16.1568H187.666V14.8223H188.87V13.3535L190.666 12.8265V14.8206H192.683V16.1568H192.685Z" fill="white"/>
<path d="M202.384 22.8361H200.55V18.2801C200.55 16.8436 199.997 16.1245 198.891 16.1245C198.041 16.1245 197.461 16.541 197.143 17.374C197.088 17.5491 197.057 17.7633 197.057 18.0149V22.8344H195.227V11.1452H197.057V15.9749H197.092C197.669 15.096 198.496 14.6574 199.567 14.6574C200.326 14.6574 200.954 14.8988 201.452 15.3833C202.072 15.9868 202.384 16.8844 202.384 18.071V22.8361Z" fill="white"/>
<path d="M212.388 18.4501C212.388 18.7697 212.364 19.0383 212.32 19.2576H206.825C206.85 20.0498 207.112 20.6533 207.621 21.0715C208.086 21.4455 208.685 21.6325 209.42 21.6325C210.233 21.6325 210.974 21.5067 211.642 21.2534L211.928 22.491C211.147 22.8208 210.227 22.9857 209.163 22.9857C207.887 22.9857 206.881 22.6202 206.154 21.8892C205.423 21.1582 205.062 20.1773 205.062 18.9465C205.062 17.7378 205.399 16.7314 206.079 15.929C206.789 15.0722 207.748 14.6438 208.96 14.6438C210.145 14.6438 211.045 15.0722 211.654 15.929C212.145 16.609 212.388 17.4505 212.388 18.4501ZM210.64 17.9894C210.654 17.4607 210.533 17.0051 210.285 16.6209C209.967 16.1262 209.483 15.878 208.827 15.878C208.229 15.878 207.741 16.1194 207.369 16.6039C207.065 16.9898 206.885 17.4505 206.825 17.9894H210.64Z" fill="white"/>
<path d="M94.2791 53.5568H90.3091L88.1344 46.9115H80.5754L78.5038 53.5568H74.6387L82.1277 30.9332H86.7533L94.2791 53.5568ZM87.4788 44.1235L85.5122 38.216C85.3041 37.6125 84.9143 36.1913 84.3391 33.9541H84.2692C84.0402 34.9163 83.6713 36.3375 83.1644 38.216L81.2327 44.1235H87.4788Z" fill="white"/>
<path d="M113.538 45.1996C113.538 47.974 112.767 50.167 111.226 51.7769C109.845 53.21 108.13 53.9257 106.083 53.9257C103.873 53.9257 102.286 53.1539 101.319 51.6103H101.249V60.2038H97.5219V42.6139C97.5219 40.8697 97.4747 39.0796 97.3838 37.2436H100.662L100.87 39.8293H100.94C102.182 37.8811 104.069 36.9087 106.6 36.9087C108.579 36.9087 110.231 37.6686 111.553 39.1901C112.878 40.7133 113.538 42.7159 113.538 45.1996ZM109.741 45.3322C109.741 43.7444 109.374 42.4354 108.637 41.4052C107.831 40.3308 106.749 39.7936 105.392 39.7936C104.473 39.7936 103.637 40.0928 102.89 40.6827C102.142 41.2777 101.653 42.0546 101.424 43.0168C101.308 43.4656 101.251 43.8328 101.251 44.1218V46.8418C101.251 48.0284 101.625 49.0297 102.373 49.8474C103.121 50.6651 104.093 51.0731 105.289 51.0731C106.693 51.0731 107.785 50.5461 108.567 49.4955C109.35 48.4432 109.741 47.056 109.741 45.3322Z" fill="white"/>
<path d="M132.833 45.1996C132.833 47.974 132.062 50.167 130.518 51.7769C129.139 53.21 127.424 53.9257 125.377 53.9257C123.167 53.9257 121.58 53.1539 120.615 51.6103H120.545V60.2038H116.818V42.6139C116.818 40.8697 116.771 39.0796 116.68 37.2436H119.957L120.166 39.8293H120.235C121.477 37.8811 123.363 36.9087 125.896 36.9087C127.873 36.9087 129.525 37.6686 130.85 39.1901C132.17 40.7133 132.833 42.7159 132.833 45.1996ZM129.036 45.3322C129.036 43.7444 128.667 42.4354 127.929 41.4052C127.123 40.3308 126.045 39.7936 124.686 39.7936C123.765 39.7936 122.931 40.0928 122.183 40.6827C121.435 41.2777 120.947 42.0546 120.718 43.0168C120.604 43.4656 120.545 43.8328 120.545 44.1218V46.8418C120.545 48.0284 120.919 49.0297 121.664 49.8474C122.412 50.6634 123.384 51.0731 124.583 51.0731C125.987 51.0731 127.079 50.5461 127.861 49.4955C128.644 48.4432 129.036 47.056 129.036 45.3322Z" fill="white"/>
<path d="M154.405 47.2124C154.405 49.1368 153.718 50.7025 152.339 51.9112C150.823 53.2321 148.713 53.8917 146.002 53.8917C143.499 53.8917 141.492 53.4225 139.973 52.4824L140.836 49.4615C142.473 50.4237 144.268 50.9065 146.224 50.9065C147.628 50.9065 148.72 50.5971 149.505 49.9817C150.287 49.3663 150.677 48.5401 150.677 47.5099C150.677 46.5919 150.355 45.8184 149.71 45.1911C149.068 44.5638 147.997 43.9807 146.5 43.4418C142.427 41.9645 140.392 39.8004 140.392 36.9546C140.392 35.0948 141.105 33.5699 142.534 32.3833C143.957 31.195 145.855 30.6017 148.229 30.6017C150.346 30.6017 152.105 30.9604 153.509 31.6761L152.577 34.6307C151.266 33.9371 149.783 33.5903 148.124 33.5903C146.813 33.5903 145.789 33.9048 145.055 34.5304C144.434 35.0897 144.123 35.7714 144.123 36.5789C144.123 37.4731 144.478 38.2126 145.191 38.794C145.811 39.3312 146.939 39.9126 148.575 40.5399C150.577 41.3236 152.047 42.2399 152.993 43.2905C153.935 44.3377 154.405 45.6484 154.405 47.2124Z" fill="white"/>
<path d="M166.728 39.9636H162.62V47.8839C162.62 49.8984 163.343 50.9048 164.794 50.9048C165.46 50.9048 166.013 50.8487 166.45 50.7365L166.553 53.4888C165.819 53.7557 164.852 53.89 163.655 53.89C162.183 53.89 161.032 53.4531 160.202 52.581C159.375 51.7072 158.959 50.2418 158.959 48.1831V39.9602H156.512V37.2402H158.959V34.2533L162.62 33.1789V37.2402H166.728V39.9636Z" fill="white"/>
<path d="M185.263 45.2659C185.263 47.7734 184.525 49.8321 183.053 51.442C181.51 53.0995 179.461 53.9257 176.907 53.9257C174.445 53.9257 172.486 53.1318 171.024 51.544C169.563 49.9562 168.832 47.9519 168.832 45.5362C168.832 43.0083 169.584 40.9377 171.092 39.3278C172.598 37.7162 174.629 36.9104 177.183 36.9104C179.644 36.9104 181.625 37.7043 183.12 39.2938C184.55 40.8357 185.263 42.8264 185.263 45.2659ZM181.396 45.3832C181.396 43.8787 181.066 42.5884 180.396 41.5123C179.615 40.2101 178.498 39.5607 177.05 39.5607C175.552 39.5607 174.414 40.2118 173.632 41.5123C172.963 42.5901 172.633 43.9008 172.633 45.4512C172.633 46.9557 172.963 48.246 173.632 49.3204C174.438 50.6226 175.564 51.272 177.017 51.272C178.44 51.272 179.557 50.609 180.363 49.2864C181.05 48.1899 181.396 46.886 181.396 45.3832Z" fill="white"/>
<path d="M197.378 40.4311C197.009 40.3648 196.616 40.3308 196.204 40.3308C194.892 40.3308 193.879 40.8119 193.165 41.7758C192.545 42.6258 192.234 43.7002 192.234 44.9973V53.5568H188.508L188.543 42.381C188.543 40.5008 188.496 38.7889 188.403 37.2453H191.65L191.786 40.3665H191.889C192.282 39.2938 192.903 38.4302 193.753 37.7825C194.583 37.1994 195.48 36.9087 196.447 36.9087C196.791 36.9087 197.102 36.9325 197.378 36.975V40.4311Z" fill="white"/>
<path d="M214.047 44.6284C214.047 45.2778 214.003 45.8251 213.911 46.2723H202.729C202.773 47.8839 203.313 49.1164 204.352 49.9664C205.294 50.7262 206.512 51.107 208.009 51.107C209.664 51.107 211.175 50.8503 212.533 50.3352L213.117 52.8513C211.53 53.5245 209.656 53.8593 207.493 53.8593C204.892 53.8593 202.85 53.1147 201.364 51.6272C199.882 50.1397 199.139 48.1422 199.139 45.6364C199.139 43.1765 199.829 41.1281 201.212 39.4944C202.659 37.7502 204.616 36.8781 207.077 36.8781C209.495 36.8781 211.325 37.7502 212.568 39.4944C213.552 40.8799 214.047 42.5935 214.047 44.6284ZM210.493 43.6882C210.517 42.6138 210.274 41.6856 209.769 40.9019C209.124 39.8938 208.133 39.3906 206.799 39.3906C205.581 39.3906 204.589 39.882 203.832 40.868C203.212 41.6517 202.843 42.5918 202.729 43.6866H210.493V43.6882Z" fill="white"/>
</svg>
