<svg width="346" height="220" viewBox="0 0 346 220" fill="none" xmlns="http://www.w3.org/2000/svg">
<path d="M0.092926 20.6883L3.05176e-05 198.272C-0.0102844 209.69 9.26016 218.96 20.6882 218.97L325.198 219.136C327.098 219.136 328.946 218.877 330.69 218.392C339.455 215.997 345.897 207.986 345.907 198.458L346 20.8741C346.01 9.45643 336.75 0.175673 325.312 0.175673L20.7914 0.010498C16.7137 0.010498 12.8837 1.19769 9.68341 3.26238C3.9126 6.91687 0.092926 13.3484 0.092926 20.6883Z" fill="url(#paint0_linear_581_6306)"/>
<path opacity="0.53" d="M106.166 219.022L325.198 219.135C327.098 219.135 328.946 218.877 330.69 218.392L233.526 121.125C230.625 118.214 227.085 116.335 223.358 115.54C216.689 114.033 209.39 115.891 204.187 121.114L106.166 219.022Z" fill="url(#paint1_linear_581_6306)"/>
<path opacity="0.53" d="M251.076 79.2736L345.917 174.218L346 20.8843C346.01 9.45625 336.74 0.18581 325.322 0.175487L300.907 0.165161L251.086 49.9344C242.972 58.0176 242.962 71.1697 251.076 79.2736Z" fill="url(#paint2_linear_581_6306)"/>
<path opacity="0.53" d="M166.682 0.0825806L196.465 29.907C204.558 38.0212 217.71 38.0315 225.804 29.9276L255.628 0.134197L166.682 0.0825806Z" fill="url(#paint3_linear_581_6306)"/>
<path opacity="0.53" d="M0.0930023 20.6882L0.010437 179.287C5.57475 179.504 11.2216 177.501 15.4749 173.237L141.472 47.3742C149.587 39.2806 149.597 26.1183 141.493 18.0144L123.551 0.0516164L20.8018 0C16.724 0 12.8941 1.1872 9.69382 3.25188C3.91269 6.9167 0.0930023 13.3482 0.0930023 20.6882Z" fill="url(#paint4_linear_581_6306)"/>
<path d="M51.8351 92.756V94.5006L49.3471 94.3974L50.7924 96.3898L49.2336 97.3189L48.0051 95.0787L46.7766 97.3189L45.2487 96.3898L46.663 94.3974L44.2061 94.511V92.7663L46.663 92.9005L45.2384 90.8771L46.7663 89.948L47.9947 92.1882L49.2232 89.948L50.7821 90.8771L49.3368 92.9005L51.8351 92.756Z" fill="white"/>
<path d="M64.6256 92.7457V94.4904L62.1377 94.3871L63.5829 96.3796L62.0241 97.3087L60.7956 95.0685L59.5671 97.3087L58.0393 96.3796L59.4536 94.3871L56.9966 94.5007V92.756L59.4536 92.8902L58.0289 90.8669L59.5568 89.9377L60.7853 92.1779L62.0138 89.9377L63.5726 90.8669L62.1273 92.8902L64.6256 92.7457Z" fill="white"/>
<path d="M77.4268 92.7457V94.4904L74.9492 94.3871L76.3944 96.3796L74.8356 97.3087L73.6071 95.0685L72.3786 97.3087L70.8508 96.3796L72.2651 94.3871L69.8081 94.5007V92.756L72.2651 92.8902L70.8404 90.8669L72.3683 89.9377L73.5968 92.1779L74.8253 89.9377L76.3841 90.8669L74.9388 92.8902L77.4268 92.7457Z" fill="white"/>
<path d="M90.2179 92.7353V94.48L87.7299 94.3768L89.1752 96.3692L87.6164 97.2983L86.3879 95.0581L85.1594 97.2983L83.6315 96.3692L85.0458 94.3768L82.5889 94.4903V92.7457L85.0458 92.8799L83.6212 90.8565L85.1491 89.9274L86.3776 92.1676L87.6061 89.9274L89.1649 90.8565L87.7196 92.8799L90.2179 92.7353Z" fill="white"/>
<path d="M111.886 92.725V94.4696L109.398 94.3664L110.844 96.3588L109.285 97.2879L108.056 95.0477L106.828 97.2879L105.3 96.3588L106.714 94.3664L104.257 94.4799V92.7353L106.714 92.8695L105.29 90.8461L106.818 89.917L108.046 92.1572L109.275 89.917L110.833 90.8461L109.388 92.8695L111.886 92.725Z" fill="white"/>
<path d="M124.688 92.7147V94.4594L122.2 94.3561L123.645 96.3486L122.086 97.2777L120.858 95.0375L119.629 97.2777L118.101 96.3486L119.516 94.3561L117.059 94.4697V92.725L119.516 92.8592L118.091 90.8358L119.619 89.9067L120.847 92.1469L122.076 89.9067L123.635 90.8358L122.189 92.8592L124.688 92.7147Z" fill="white"/>
<path d="M137.478 92.7147V94.4594L134.99 94.3561L136.435 96.3486L134.877 97.2777L133.648 95.0375L132.42 97.2777L130.892 96.3486L132.306 94.3561L129.849 94.4697V92.725L132.306 92.8592L130.881 90.8358L132.409 89.9067L133.638 92.1469L134.866 89.9067L136.425 90.8358L134.98 92.8592L137.478 92.7147Z" fill="white"/>
<path d="M150.279 92.7045V94.4491L147.801 94.3459L149.247 96.3383L147.688 97.2674L146.459 95.0272L145.231 97.2674L143.703 96.3383L145.117 94.3459L142.66 94.4594V92.7148L145.117 92.849L143.693 90.8256L145.22 89.8965L146.449 92.1367L147.677 89.8965L149.236 90.8256L147.791 92.849L150.279 92.7045Z" fill="white"/>
<path d="M171.938 92.6941V94.4387L169.45 94.3355L170.895 96.3279L169.336 97.257L168.108 95.0169L166.879 97.257L165.351 96.3279L166.766 94.3355L164.309 94.4491V92.7044L166.766 92.8386L165.341 90.8152L166.869 89.8861L168.097 92.1263L169.326 89.8861L170.885 90.8152L169.439 92.8386L171.938 92.6941Z" fill="white"/>
<path d="M184.739 92.6837V94.4284L182.251 94.3252L183.696 96.3176L182.137 97.2467L180.909 95.0065L179.68 97.2467L178.153 96.3176L179.567 94.3252L177.11 94.4387V92.694L179.567 92.8282L178.142 90.8048L179.67 89.8757L180.899 92.1159L182.127 89.8757L183.686 90.8048L182.241 92.8282L184.739 92.6837Z" fill="white"/>
<path d="M197.54 92.6735V94.4181L195.052 94.3149L196.498 96.3073L194.939 97.2364L193.71 94.9962L192.482 97.2364L190.954 96.3073L192.368 94.3149L189.911 94.4284V92.6838L192.368 92.818L190.943 90.7946L192.471 89.8655L193.7 92.1057L194.928 89.8655L196.487 90.7946L195.042 92.818L197.54 92.6735Z" fill="white"/>
<path d="M210.331 92.6735V94.4181L207.853 94.3149L209.298 96.3073L207.739 97.2364L206.511 94.9962L205.282 97.2364L203.755 96.3073L205.169 94.3149L202.712 94.4284V92.6838L205.169 92.818L203.744 90.7946L205.272 89.8655L206.501 92.1057L207.729 89.8655L209.288 90.7946L207.843 92.818L210.331 92.6735Z" fill="white"/>
<path d="M223.792 109.304V107.229L230.523 100.354C232.32 98.5475 233.228 97.0093 233.228 95.7189C233.228 94.6452 232.898 93.809 232.247 93.2103C231.597 92.6115 230.792 92.3121 229.842 92.3121C228.035 92.3121 226.735 93.169 225.919 94.8827L223.792 93.6335C224.391 92.3947 225.227 91.4553 226.291 90.8256C227.354 90.1855 228.531 89.8655 229.821 89.8655C231.421 89.8655 232.815 90.392 233.992 91.445C235.179 92.498 235.768 93.9226 235.768 95.6982C235.768 97.6287 234.632 99.7347 232.361 102.006L227.488 106.868H236.119V109.325L223.792 109.304Z" fill="white"/>
<path d="M247.578 98.021C249.033 98.2894 250.231 98.9191 251.16 99.8998C252.089 100.881 252.554 102.13 252.554 103.637C252.554 105.495 251.914 106.961 250.644 108.035C249.374 109.108 247.826 109.645 246.009 109.645C244.553 109.645 243.263 109.315 242.137 108.654C241.012 107.993 240.207 107.033 239.732 105.774L241.859 104.514C242.426 106.28 243.81 107.157 246.009 107.157C247.185 107.157 248.156 106.847 248.899 106.228C249.642 105.609 250.014 104.742 250.014 103.637C250.014 102.532 249.642 101.655 248.899 101.035C248.156 100.406 247.185 100.096 246.009 100.096H245.358L244.347 98.5371L248.765 92.5599H240.279V90.1855L251.738 90.1752L251.728 92.405L247.578 98.021Z" fill="white"/>
<path d="M271.404 103.276V105.65H269.081V109.284H266.542V105.65H256.796V103.276L263.641 90.1752H266.366L259.522 103.276H266.531V97.8764H269.071V103.276H271.404Z" fill="white"/>
<path d="M281.376 97.6286C283.183 97.6286 284.7 98.1551 285.949 99.2184C287.199 100.282 287.818 101.748 287.818 103.627C287.818 105.485 287.178 106.951 285.908 108.024C284.638 109.098 283.09 109.635 281.273 109.635C279.817 109.635 278.517 109.284 277.371 108.582C276.225 107.88 275.42 106.868 274.965 105.536L277.123 104.308C277.381 105.237 277.866 105.939 278.599 106.424C279.332 106.909 280.22 107.147 281.273 107.147C282.47 107.147 283.451 106.837 284.194 106.218C284.938 105.598 285.309 104.731 285.309 103.627C285.309 102.522 284.938 101.644 284.184 101.025C283.441 100.395 282.481 100.086 281.314 100.086H275.915L276.596 90.1751L287.075 90.1648V92.5392H278.919L278.589 97.6183L281.376 97.6286Z" fill="white"/>
<path d="M45.8683 161.582C44.7534 161.582 43.8346 161.211 43.1016 160.478C42.3686 159.745 42.0073 158.836 42.0073 157.763C42.0073 156.689 42.3686 155.781 43.0913 155.048C43.8139 154.315 44.743 153.943 45.858 153.943C46.529 153.943 47.1484 154.108 47.7162 154.428C48.284 154.748 48.7176 155.182 49.0376 155.729L48.1807 156.224C47.9743 155.822 47.6543 155.491 47.2413 155.254C46.8284 155.017 46.3638 154.893 45.858 154.893C45.0114 154.893 44.3198 155.171 43.783 155.719C43.2461 156.266 42.9777 156.947 42.9777 157.773C42.9777 158.589 43.2461 159.27 43.783 159.817C44.3198 160.364 45.0114 160.643 45.858 160.633C46.3638 160.633 46.8284 160.509 47.2413 160.271C47.6646 160.034 47.9743 159.714 48.1807 159.311L49.0376 159.796C48.7279 160.344 48.2943 160.787 47.7265 161.107C47.1587 161.417 46.5393 161.582 45.8683 161.582Z" fill="white"/>
<path d="M54.3956 156.173H55.3144V161.438H54.3956V160.529C53.9414 161.221 53.2807 161.572 52.4032 161.572C51.6702 161.572 51.0405 161.304 50.514 160.767C49.9978 160.23 49.7397 159.579 49.7397 158.805C49.7397 158.031 49.9978 157.381 50.514 156.844C51.0302 156.307 51.6599 156.039 52.4032 156.039C53.2704 156.039 53.9311 156.379 54.3956 157.081V156.173ZM52.5168 160.684C53.0536 160.684 53.4975 160.509 53.8485 160.137C54.2098 159.776 54.3853 159.332 54.3853 158.795C54.3853 158.258 54.2098 157.814 53.8485 157.453C53.4871 157.092 53.0432 156.916 52.5064 156.916C51.9799 156.916 51.536 157.102 51.185 157.463C50.8237 157.825 50.6482 158.268 50.6482 158.805C50.6482 159.342 50.8237 159.786 51.185 160.147C51.5567 160.509 51.9903 160.694 52.5168 160.684Z" fill="white"/>
<path d="M57.6161 157.05C57.9154 156.4 58.4626 156.07 59.2575 156.07V157.03C58.8136 157.009 58.4213 157.123 58.1013 157.391C57.7812 157.649 57.6161 158.072 57.6161 158.64V161.427H56.6973V156.162H57.6161V157.05Z" fill="white"/>
<path d="M64.2233 154.057H65.142V161.427H64.2233V160.519C63.769 161.211 63.1083 161.562 62.2308 161.562C61.4979 161.562 60.8681 161.293 60.3416 160.756C59.8255 160.22 59.5674 159.569 59.5674 158.795C59.5674 158.021 59.8255 157.37 60.3416 156.834C60.8578 156.297 61.4875 156.028 62.2308 156.028C63.098 156.028 63.769 156.369 64.2233 157.071V154.057ZM62.3547 160.684C62.8915 160.684 63.3354 160.509 63.6864 160.137C64.0478 159.776 64.2233 159.332 64.2233 158.795C64.2233 158.258 64.0478 157.814 63.6864 157.453C63.3251 157.092 62.8812 156.916 62.3547 156.916C61.8282 156.916 61.3843 157.102 61.0333 157.463C60.672 157.825 60.4965 158.268 60.4965 158.805C60.4965 159.342 60.672 159.786 61.0333 160.147C61.3843 160.509 61.8282 160.684 62.3547 160.684Z" fill="white"/>
<path d="M73.8139 154.057H74.7843V161.427H73.8139V158.114H70.2317V161.427H69.251V154.057H70.2317V157.185H73.8139V154.057Z" fill="white"/>
<path d="M80.7097 160.756C80.1728 161.293 79.5121 161.562 78.7379 161.562C77.9636 161.562 77.3132 161.293 76.7764 160.767C76.2396 160.23 75.9712 159.58 75.9712 158.795C75.9712 158.021 76.2396 157.36 76.7764 156.823C77.3132 156.286 77.9636 156.028 78.7379 156.018C79.5121 156.018 80.1625 156.286 80.7097 156.813C81.2568 157.339 81.5252 158 81.5252 158.785C81.5149 159.569 81.2465 160.22 80.7097 160.756ZM78.7379 160.663C79.2644 160.663 79.7083 160.488 80.0593 160.127C80.4206 159.765 80.5961 159.321 80.5961 158.795C80.5961 158.258 80.4206 157.814 80.0593 157.463C79.6979 157.102 79.254 156.926 78.7276 156.926C78.2114 156.926 77.7675 157.102 77.4061 157.463C77.0448 157.825 76.8693 158.268 76.8693 158.795C76.8693 159.332 77.0448 159.776 77.4061 160.127C77.7881 160.488 78.2217 160.663 78.7379 160.663Z" fill="white"/>
<path d="M82.6094 161.417V153.736H83.5282V161.417H82.6094Z" fill="white"/>
<path d="M89.2785 154.046H90.1973V161.417H89.2785V160.509C88.8243 161.2 88.1636 161.551 87.2861 161.551C86.5531 161.551 85.9234 161.283 85.3969 160.746C84.8807 160.209 84.6226 159.559 84.6123 158.785C84.6123 158.01 84.8704 157.36 85.3866 156.823C85.9027 156.286 86.5325 156.018 87.2654 156.018C88.1326 156.018 88.8036 156.369 89.2578 157.061L89.2785 154.046ZM87.41 160.674C87.9468 160.674 88.3907 160.498 88.7417 160.127C89.103 159.765 89.2785 159.321 89.2785 158.785C89.2785 158.248 89.103 157.804 88.7417 157.443C88.3804 157.081 87.9364 156.906 87.41 156.906C86.8835 156.906 86.4395 157.092 86.0782 157.453C85.7169 157.814 85.5414 158.258 85.5414 158.795C85.5414 159.332 85.7169 159.776 86.0782 160.137C86.4395 160.488 86.8835 160.674 87.41 160.674Z" fill="white"/>
<path d="M92.2309 159.208C92.3238 159.683 92.5406 160.044 92.8812 160.302C93.2219 160.56 93.6452 160.695 94.1407 160.695C94.8324 160.695 95.3382 160.436 95.6582 159.92L96.4325 160.364C95.9163 161.159 95.1524 161.551 94.12 161.551C93.2839 161.551 92.6025 161.293 92.0863 160.767C91.5598 160.24 91.3018 159.58 91.3018 158.785C91.3018 157.99 91.5598 157.329 92.0657 156.803C92.5819 156.276 93.2426 156.008 94.0581 156.008C94.8324 156.008 95.4621 156.276 95.9473 156.823C96.4325 157.37 96.6803 158.021 96.6803 158.785C96.6803 158.919 96.6699 159.053 96.6493 159.198L92.2309 159.208ZM94.0478 156.875C93.5523 156.875 93.1496 157.009 92.8296 157.288C92.5096 157.567 92.3031 157.938 92.2309 158.403H95.7512C95.6686 157.907 95.4724 157.525 95.1627 157.267C94.8324 157.009 94.4607 156.875 94.0478 156.875Z" fill="white"/>
<path d="M98.6312 157.03C98.9306 156.379 99.4777 156.049 100.273 156.049V157.009C99.8184 156.988 99.4364 157.112 99.1164 157.37C98.7964 157.628 98.6312 158.052 98.6312 158.619V161.407H97.7124V156.142H98.6312V157.03Z" fill="white"/>
<path d="M106.425 156.008C107.045 156.008 107.54 156.204 107.912 156.586C108.284 156.978 108.469 157.505 108.469 158.176V161.407H107.551V158.227C107.551 157.794 107.437 157.463 107.2 157.236C106.973 156.999 106.642 156.885 106.24 156.885C105.785 156.885 105.414 157.03 105.135 157.308C104.856 157.597 104.712 158.031 104.712 158.62V161.407H103.793V156.142H104.712V156.896C105.094 156.307 105.662 156.008 106.425 156.008Z" fill="white"/>
<path d="M114.096 156.142H115.015V161.407H114.096V160.498C113.642 161.19 112.981 161.541 112.103 161.541C111.37 161.541 110.741 161.273 110.214 160.736C109.698 160.199 109.44 159.549 109.43 158.774C109.43 158 109.688 157.35 110.204 156.813C110.72 156.276 111.35 156.008 112.083 156.008C112.95 156.008 113.621 156.348 114.075 157.05V156.142H114.096ZM112.227 160.653C112.764 160.653 113.208 160.467 113.559 160.106C113.92 159.745 114.096 159.301 114.096 158.764C114.096 158.227 113.92 157.783 113.559 157.422C113.198 157.061 112.754 156.885 112.227 156.885C111.701 156.885 111.257 157.061 110.896 157.432C110.534 157.794 110.359 158.238 110.359 158.774C110.359 159.311 110.534 159.755 110.896 160.116C111.257 160.478 111.701 160.653 112.227 160.653Z" fill="white"/>
<path d="M122.086 155.997C122.674 155.997 123.149 156.183 123.521 156.575C123.882 156.957 124.068 157.474 124.068 158.124V161.396H123.149V158.155C123.149 157.752 123.046 157.432 122.829 157.205C122.623 156.978 122.333 156.864 121.982 156.864C121.59 156.864 121.28 156.999 121.043 157.257C120.806 157.515 120.692 157.917 120.692 158.465V161.386H119.773V158.145C119.773 157.742 119.67 157.422 119.474 157.195C119.278 156.968 118.999 156.854 118.658 156.854C118.266 156.854 117.946 156.988 117.698 157.257C117.44 157.525 117.316 157.928 117.316 158.454V161.376H116.397V156.111H117.316V156.813C117.678 156.255 118.194 155.966 118.885 155.966C119.598 155.966 120.114 156.266 120.434 156.864C120.795 156.297 121.353 155.997 122.086 155.997Z" fill="white"/>
<path d="M125.978 159.187C126.071 159.662 126.288 160.023 126.628 160.281C126.969 160.54 127.392 160.674 127.888 160.674C128.579 160.674 129.085 160.416 129.405 159.9L130.18 160.343C129.663 161.138 128.899 161.531 127.867 161.531C127.031 161.531 126.35 161.273 125.833 160.746C125.307 160.22 125.049 159.559 125.049 158.764C125.049 157.969 125.307 157.308 125.813 156.782C126.329 156.255 126.99 155.997 127.805 155.987C128.579 155.987 129.209 156.255 129.694 156.802C130.18 157.35 130.427 158 130.427 158.764C130.427 158.898 130.417 159.032 130.396 159.177L125.978 159.187ZM127.805 156.854C127.31 156.854 126.907 156.988 126.587 157.267C126.267 157.546 126.061 157.917 125.988 158.382H129.509C129.426 157.886 129.23 157.504 128.92 157.246C128.59 156.988 128.218 156.854 127.805 156.854Z" fill="white"/>
<path d="M269.556 160.395H272.973V161.324H268.576V153.953H272.922V154.882H269.556V157.143H272.664V158.062H269.556V160.395Z" fill="white"/>
<path d="M278.631 161.314H277.557L276.081 159.321L274.604 161.314H273.531L275.544 158.599L273.644 156.049H274.728L276.081 157.876L277.443 156.049H278.517L276.617 158.599L278.631 161.314Z" fill="white"/>
<path d="M282.388 155.915C283.121 155.915 283.751 156.183 284.277 156.72C284.794 157.257 285.062 157.907 285.062 158.681C285.062 159.456 284.804 160.106 284.288 160.643C283.771 161.18 283.142 161.448 282.409 161.448C281.542 161.448 280.871 161.097 280.416 160.405V163.42H279.498V156.049H280.416V156.957C280.85 156.255 281.521 155.915 282.388 155.915ZM282.275 160.56C282.801 160.56 283.245 160.385 283.606 160.013C283.968 159.652 284.143 159.208 284.143 158.671C284.143 158.134 283.968 157.69 283.606 157.329C283.245 156.968 282.801 156.792 282.275 156.792C281.738 156.792 281.294 156.978 280.943 157.339C280.582 157.701 280.406 158.145 280.406 158.681C280.406 159.218 280.582 159.662 280.943 160.023C281.294 160.385 281.738 160.56 282.275 160.56Z" fill="white"/>
<path d="M286.611 155.089C286.435 155.089 286.291 155.027 286.167 154.913C286.043 154.789 285.991 154.655 285.991 154.48C285.991 154.304 286.053 154.17 286.167 154.046C286.291 153.922 286.435 153.86 286.611 153.86C286.776 153.86 286.92 153.922 287.044 154.046C287.168 154.17 287.22 154.315 287.22 154.48C287.22 154.645 287.158 154.789 287.044 154.913C286.92 155.027 286.776 155.089 286.611 155.089ZM286.146 161.304V156.039H287.065V161.304H286.146Z" fill="white"/>
<path d="M289.377 156.926C289.677 156.276 290.224 155.946 291.019 155.946V156.906C290.575 156.885 290.183 157.009 289.863 157.267C289.542 157.525 289.377 157.948 289.377 158.516V161.304H288.458V156.039H289.377V156.926Z" fill="white"/>
<path d="M295.706 156.039H296.686L294.539 161.634C294.312 162.233 294.002 162.687 293.6 162.997C293.197 163.306 292.732 163.451 292.206 163.409V162.553C292.846 162.604 293.321 162.243 293.62 161.479L293.724 161.283L291.421 156.039H292.402L294.157 160.075L295.706 156.039Z" fill="white"/>
<path d="M303.046 153.933C304.047 153.933 304.883 154.284 305.544 154.996C306.205 155.708 306.535 156.575 306.535 157.608C306.535 158.64 306.205 159.507 305.544 160.22C304.883 160.932 304.047 161.293 303.046 161.293H300.176V153.922L303.046 153.933ZM303.056 160.375C303.81 160.375 304.419 160.106 304.894 159.58C305.368 159.053 305.606 158.392 305.606 157.608C305.606 156.823 305.368 156.163 304.894 155.636C304.419 155.11 303.799 154.851 303.056 154.851H301.157V160.364L303.056 160.375Z" fill="white"/>
<path d="M311.996 156.028H312.915V161.293H311.996V160.385C311.542 161.076 310.881 161.427 310.004 161.427C309.271 161.427 308.641 161.159 308.115 160.622C307.598 160.085 307.34 159.435 307.34 158.661C307.34 157.886 307.598 157.236 308.115 156.699C308.631 156.162 309.26 155.894 310.004 155.894C310.871 155.894 311.532 156.235 311.996 156.937V156.028ZM310.128 160.55C310.664 160.55 311.108 160.364 311.459 160.003C311.821 159.641 311.996 159.198 311.996 158.661C311.996 158.124 311.821 157.68 311.459 157.319C311.098 156.957 310.654 156.782 310.117 156.782C309.591 156.782 309.147 156.957 308.796 157.329C308.435 157.69 308.259 158.134 308.259 158.671C308.259 159.208 308.435 159.652 308.796 160.013C309.157 160.374 309.601 160.55 310.128 160.55Z" fill="white"/>
<path d="M317.168 156.916H315.764V159.765C315.764 160.023 315.815 160.209 315.919 160.323C316.022 160.436 316.177 160.488 316.383 160.488C316.59 160.488 316.858 160.488 317.157 160.478V161.293C316.362 161.396 315.774 161.335 315.402 161.097C315.031 160.86 314.845 160.416 314.845 159.765V156.916H313.802V156.028H314.845V154.831L315.764 154.562V156.039H317.168V156.916Z" fill="white"/>
<path d="M318.634 159.084C318.727 159.559 318.943 159.92 319.284 160.178C319.625 160.436 320.048 160.571 320.544 160.571C321.235 160.571 321.741 160.313 322.061 159.796L322.835 160.24C322.319 161.035 321.555 161.427 320.523 161.427C319.687 161.427 319.005 161.169 318.489 160.643C317.963 160.116 317.705 159.456 317.705 158.661C317.705 157.866 317.963 157.205 318.469 156.679C318.985 156.152 319.645 155.894 320.461 155.884C321.235 155.884 321.865 156.152 322.35 156.699C322.835 157.246 323.083 157.897 323.083 158.661C323.083 158.795 323.073 158.929 323.052 159.074L318.634 159.084ZM320.451 156.751C319.955 156.751 319.552 156.885 319.232 157.164C318.912 157.443 318.706 157.814 318.634 158.279H322.154C322.071 157.783 321.875 157.401 321.566 157.143C321.235 156.885 320.874 156.751 320.451 156.751Z" fill="white"/>
<path d="M276.081 181.785C275.317 182.848 274.253 183.385 272.88 183.385C271.507 183.385 270.434 182.859 269.67 181.795C268.906 180.732 268.524 179.318 268.524 177.542C268.524 175.767 268.906 174.352 269.67 173.289C270.434 172.226 271.497 171.699 272.87 171.689C274.243 171.689 275.317 172.215 276.07 173.279C276.834 174.342 277.216 175.756 277.216 177.532C277.227 179.308 276.845 180.722 276.081 181.785ZM270.764 180.773C271.26 181.537 271.962 181.919 272.87 181.919C273.779 181.919 274.491 181.537 274.986 180.773C275.482 180.01 275.73 178.936 275.73 177.542C275.73 176.149 275.482 175.065 274.976 174.301C274.481 173.537 273.768 173.155 272.86 173.155C271.951 173.155 271.249 173.537 270.754 174.301C270.258 175.065 270.011 176.149 270.011 177.553C270.021 178.936 270.269 180.01 270.764 180.773Z" fill="white"/>
<path d="M278.321 183.169V181.94L282.296 177.883C283.359 176.82 283.886 175.911 283.886 175.147C283.886 174.517 283.689 174.022 283.307 173.671C282.925 173.32 282.451 173.144 281.893 173.144C280.83 173.144 280.056 173.65 279.581 174.662L278.321 173.919C278.672 173.186 279.168 172.639 279.798 172.257C280.427 171.885 281.119 171.689 281.883 171.689C282.822 171.689 283.648 171.999 284.35 172.618C285.052 173.237 285.393 174.074 285.403 175.127C285.403 176.262 284.732 177.511 283.39 178.853L280.52 181.723H285.62V183.169H278.321Z" fill="white"/>
<path d="M287.674 184.758L286.837 184.779L293.269 170.306L294.105 170.285L287.674 184.758Z" fill="white"/>
<path d="M299.804 176.51C300.661 176.675 301.373 177.036 301.92 177.625C302.467 178.203 302.746 178.936 302.746 179.834C302.746 180.928 302.375 181.796 301.621 182.425C300.867 183.055 299.959 183.375 298.885 183.375C298.028 183.375 297.264 183.179 296.604 182.787C295.943 182.394 295.468 181.826 295.189 181.094L296.449 180.35C296.779 181.393 297.595 181.909 298.896 181.909C299.598 181.909 300.165 181.723 300.599 181.362C301.033 181.001 301.26 180.484 301.26 179.834C301.26 179.184 301.043 178.668 300.599 178.296C300.155 177.924 299.587 177.738 298.896 177.738H298.514L297.915 176.82L300.527 173.289H295.52V171.885H302.282L302.271 173.196L299.804 176.51Z" fill="white"/>
<path d="M311.614 181.765C310.85 182.828 309.787 183.365 308.414 183.365C307.041 183.365 305.967 182.838 305.213 181.775C304.449 180.712 304.067 179.297 304.067 177.522C304.067 175.746 304.449 174.332 305.203 173.268C305.957 172.205 307.03 171.679 308.403 171.668C309.776 171.668 310.85 172.195 311.614 173.258C312.378 174.321 312.76 175.736 312.76 177.511C312.76 179.287 312.378 180.701 311.614 181.765ZM306.308 180.753C306.803 181.517 307.505 181.899 308.414 181.899C309.322 181.899 310.034 181.517 310.53 180.753C311.025 179.989 311.273 178.915 311.273 177.511C311.273 176.107 311.025 175.034 310.52 174.27C310.024 173.506 309.312 173.113 308.403 173.124C307.495 173.124 306.782 173.506 306.297 174.27C305.802 175.034 305.554 176.118 305.554 177.522C305.564 178.915 305.812 179.989 306.308 180.753Z" fill="white"/>
<path d="M55.4059 58.9465C47.9654 58.9465 41.9338 52.9148 41.9338 45.4744C41.9338 38.034 47.9654 32.0023 55.4059 32.0023C62.8463 32.0023 68.8779 38.034 68.8779 45.4744C68.8779 52.9148 62.8463 58.9465 55.4059 58.9465Z" fill="white"/>
<path d="M37.4326 58.9365C44.8655 58.9365 50.9047 52.8973 50.915 45.4747C50.9253 38.0522 44.8758 32.0026 37.4533 31.9923C30.0204 31.9923 23.9812 38.0315 23.9709 45.4541C23.9605 52.8766 29.9998 58.9261 37.4326 58.9365ZM37.443 36.483C42.3982 36.483 46.4243 40.5195 46.4243 45.4644C46.4243 50.4093 42.3879 54.4458 37.443 54.4458C32.4877 54.4458 28.4616 50.4093 28.4616 45.4644C28.4616 40.4988 32.4877 36.4727 37.443 36.483Z" fill="white"/>
<mask id="mask0_581_6306" style="mask-type:luminance" maskUnits="userSpaceOnUse" x="48" y="17" width="35" height="42">
<path d="M48.9995 17.1824H82.4127V58.5776H48.9995V17.1824Z" fill="white"/>
</mask>
<g mask="url(#mask0_581_6306)">
<path d="M59.3798 29.0543C57.6955 28.0787 57.6956 25.6467 59.3801 24.6714C60.1651 24.2168 61.1332 24.2169 61.9182 24.6715L77.9723 33.9688C79.9205 35.0971 82.3592 33.6913 82.3592 31.4399C82.3592 30.3973 81.8036 29.4336 80.9014 28.9111L66.3955 20.5103C62.8411 18.4519 58.4572 18.4519 54.9029 20.5105L52.2299 22.0586C50.3445 23.1506 49.1836 25.1645 49.1836 27.3433C49.1836 29.5225 50.3448 31.5366 52.2307 32.6285L74.0256 45.2472C75.5734 46.1433 76.5265 47.7963 76.5265 49.5848V53.2194C76.5265 55.4659 78.9595 56.8688 80.9037 55.7435C81.8045 55.2221 82.3592 54.2602 82.3592 53.2194V48.6314C82.3592 44.7522 80.2925 41.1668 76.9357 39.2226L59.3798 29.0543Z" fill="white"/>
</g>
<mask id="mask1_581_6306" style="mask-type:luminance" maskUnits="userSpaceOnUse" x="39" y="22" width="34" height="42">
<path d="M39.6211 22.3131H72.9943V63.8642H39.6211V22.3131Z" fill="white"/>
</mask>
<g mask="url(#mask1_581_6306)">
<path d="M63.9081 52.2573C65.5927 53.2331 65.593 55.6654 63.9085 56.6415C63.1231 57.0966 62.1542 57.0968 61.3687 56.6418L45.3156 47.345C43.3674 46.2168 40.9287 47.6226 40.9287 49.8739C40.9287 50.9166 41.4842 51.8803 42.3865 52.4028L56.8927 60.8037C60.4468 62.862 64.8305 62.8618 68.3844 60.8031L71.0552 59.2559C72.941 58.1635 74.1021 56.1491 74.1021 53.9697C74.1021 51.7897 72.9403 49.7748 71.0536 48.6826L49.2597 36.0663C47.7121 35.1704 46.7592 33.5177 46.7592 31.7295V28.0929C46.7592 25.8468 44.326 24.4444 42.3825 25.5705C41.4827 26.0918 40.9287 27.053 40.9287 28.0929V32.6797C40.9287 36.5593 42.9956 40.1449 46.3527 42.0893L63.9081 52.2573Z" fill="white"/>
</g>
<path d="M53.1084 183.553H50.8204L49.9244 181.041H44.9324L44.0524 183.553H41.8284L46.1644 172.161H48.6924L53.1084 183.553ZM46.0204 177.969L45.5884 179.201H49.2684L48.8204 177.969C48.4471 177.02 47.9778 175.719 47.4124 174.065C46.9644 175.388 46.5004 176.689 46.0204 177.969ZM62.1318 183.553H60.1158C60.0198 183.383 59.9451 183.047 59.8918 182.545C59.3371 183.345 58.4518 183.745 57.2358 183.745C56.3291 183.745 55.6038 183.527 55.0598 183.089C54.5265 182.652 54.2598 182.044 54.2598 181.265C54.2598 179.761 55.3158 178.903 57.4278 178.689L58.6758 178.577C59.0918 178.524 59.3905 178.428 59.5718 178.289C59.7531 178.14 59.8438 177.921 59.8438 177.633C59.8438 177.281 59.7265 177.025 59.4918 176.865C59.2678 176.695 58.8838 176.609 58.3398 176.609C57.7531 176.609 57.3318 176.711 57.0758 176.913C56.8198 177.105 56.6705 177.441 56.6278 177.921H54.6438C54.7611 176.044 55.9985 175.105 58.3558 175.105C60.6491 175.105 61.7958 175.932 61.7958 177.585V181.985C61.7958 182.711 61.9078 183.233 62.1318 183.553ZM57.7158 182.305C58.3451 182.305 58.8571 182.135 59.2518 181.793C59.6465 181.441 59.8438 180.94 59.8438 180.289V179.537C59.6518 179.708 59.3371 179.82 58.8998 179.873L57.8118 180.001C57.2785 180.065 56.8945 180.193 56.6598 180.385C56.4358 180.567 56.3238 180.833 56.3238 181.185C56.3238 181.537 56.4411 181.815 56.6758 182.017C56.9211 182.209 57.2678 182.305 57.7158 182.305ZM69.9427 176.369V172.161H71.9587V183.553H70.0067V182.401C69.3987 183.297 68.5293 183.745 67.3987 183.745C66.2573 183.745 65.356 183.351 64.6947 182.561C64.0227 181.772 63.6867 180.727 63.6867 179.425C63.6867 178.103 64.0227 177.052 64.6947 176.273C65.3453 175.495 66.2467 175.105 67.3987 175.105C68.508 175.105 69.356 175.527 69.9427 176.369ZM65.7507 179.489C65.7507 180.343 65.9373 180.988 66.3107 181.425C66.684 181.863 67.2013 182.081 67.8627 182.081C68.524 182.081 69.0467 181.852 69.4307 181.393C69.804 180.935 69.9907 180.279 69.9907 179.425C69.9907 178.572 69.804 177.916 69.4307 177.457C69.0573 176.999 68.5347 176.769 67.8627 176.769C67.212 176.769 66.6947 177.009 66.3107 177.489C65.9373 177.969 65.7507 178.636 65.7507 179.489ZM82.1779 179.569V180.049H76.0019C76.0766 180.753 76.2953 181.287 76.6579 181.649C77.0313 182.001 77.5273 182.177 78.1459 182.177C79.0633 182.177 79.6926 181.783 80.0339 180.993H81.9699C81.7566 181.836 81.3086 182.508 80.6259 183.009C79.9433 183.5 79.1113 183.745 78.1299 183.745C76.9033 183.745 75.9113 183.351 75.1539 182.561C74.3966 181.772 74.0179 180.727 74.0179 179.425C74.0179 178.124 74.3913 177.079 75.1379 176.289C75.8953 175.5 76.8819 175.105 78.0979 175.105C79.3459 175.105 80.3379 175.516 81.0739 176.337C81.8099 177.159 82.1779 178.236 82.1779 179.569ZM78.0819 176.673C76.8979 176.673 76.2099 177.329 76.0179 178.641H80.1619C80.0766 178.033 79.8526 177.553 79.4899 177.201C79.1273 176.849 78.6579 176.673 78.0819 176.673ZM86.2957 183.553H84.2797V172.161H86.2957V183.553ZM103.533 183.553H101.245L100.349 181.041H95.3574L94.4774 183.553H92.2534L96.5894 172.161H99.1174L103.533 183.553ZM96.4454 177.969L96.0134 179.201H99.6934L99.2454 177.969C98.8721 177.02 98.4028 175.719 97.8374 174.065C97.3894 175.388 96.9254 176.689 96.4454 177.969ZM108.49 183.777C106.08 183.777 104.821 182.828 104.714 180.929H106.682C106.736 181.441 106.901 181.804 107.178 182.017C107.466 182.231 107.914 182.337 108.522 182.337C109.61 182.337 110.154 182.007 110.154 181.345C110.154 181.047 110.037 180.817 109.802 180.657C109.568 180.497 109.146 180.364 108.538 180.257L107.594 180.097C105.792 179.799 104.89 178.967 104.89 177.601C104.89 176.823 105.189 176.215 105.786 175.777C106.384 175.329 107.226 175.105 108.314 175.105C110.672 175.105 111.888 176.039 111.962 177.905H110.058C110.037 177.415 109.882 177.068 109.594 176.865C109.306 176.652 108.88 176.545 108.314 176.545C107.354 176.545 106.874 176.865 106.874 177.505C106.874 177.783 106.981 178.001 107.194 178.161C107.408 178.311 107.76 178.428 108.25 178.513L109.29 178.673C110.293 178.855 111.018 179.143 111.466 179.537C111.925 179.932 112.154 180.481 112.154 181.185C112.154 182.017 111.834 182.657 111.194 183.105C110.554 183.553 109.653 183.777 108.49 183.777ZM121.654 183.553H119.638C119.542 183.383 119.467 183.047 119.414 182.545C118.859 183.345 117.974 183.745 116.758 183.745C115.851 183.745 115.126 183.527 114.582 183.089C114.048 182.652 113.782 182.044 113.782 181.265C113.782 179.761 114.838 178.903 116.95 178.689L118.198 178.577C118.614 178.524 118.912 178.428 119.094 178.289C119.275 178.14 119.366 177.921 119.366 177.633C119.366 177.281 119.248 177.025 119.014 176.865C118.79 176.695 118.406 176.609 117.862 176.609C117.275 176.609 116.854 176.711 116.598 176.913C116.342 177.105 116.192 177.441 116.15 177.921H114.166C114.283 176.044 115.52 175.105 117.878 175.105C120.171 175.105 121.318 175.932 121.318 177.585V181.985C121.318 182.711 121.43 183.233 121.654 183.553ZM117.238 182.305C117.867 182.305 118.379 182.135 118.774 181.793C119.168 181.441 119.366 180.94 119.366 180.289V179.537C119.174 179.708 118.859 179.82 118.422 179.873L117.334 180.001C116.8 180.065 116.416 180.193 116.182 180.385C115.958 180.567 115.846 180.833 115.846 181.185C115.846 181.537 115.963 181.815 116.198 182.017C116.443 182.209 116.79 182.305 117.238 182.305ZM129.465 176.369V172.161H131.481V183.553H129.529V182.401C128.921 183.297 128.051 183.745 126.921 183.745C125.779 183.745 124.878 183.351 124.217 182.561C123.545 181.772 123.209 180.727 123.209 179.425C123.209 178.103 123.545 177.052 124.217 176.273C124.867 175.495 125.769 175.105 126.921 175.105C128.03 175.105 128.878 175.527 129.465 176.369ZM125.273 179.489C125.273 180.343 125.459 180.988 125.833 181.425C126.206 181.863 126.723 182.081 127.385 182.081C128.046 182.081 128.569 181.852 128.953 181.393C129.326 180.935 129.513 180.279 129.513 179.425C129.513 178.572 129.326 177.916 128.953 177.457C128.579 176.999 128.057 176.769 127.385 176.769C126.734 176.769 126.217 177.009 125.833 177.489C125.459 177.969 125.273 178.636 125.273 179.489Z" fill="white"/>
<defs>
<linearGradient id="paint0_linear_581_6306" x1="308.078" y1="244.802" x2="37.9189" y2="-25.6532" gradientUnits="userSpaceOnUse">
<stop stop-color="#00252E"/>
<stop offset="1" stop-color="#83F8A6"/>
</linearGradient>
<linearGradient id="paint1_linear_581_6306" x1="330.715" y1="167.117" x2="106.195" y2="166.995" gradientUnits="userSpaceOnUse">
<stop stop-color="#02CAFD"/>
<stop offset="1" stop-color="#83F8A6"/>
</linearGradient>
<linearGradient id="paint2_linear_581_6306" x1="386.415" y1="133.764" x2="276.907" y2="24.1364" gradientUnits="userSpaceOnUse">
<stop stop-color="#02CAFD"/>
<stop offset="1" stop-color="#83F8A6"/>
</linearGradient>
<linearGradient id="paint3_linear_581_6306" x1="233.382" y1="22.3602" x2="188.93" y2="-22.1408" gradientUnits="userSpaceOnUse">
<stop stop-color="#02CAFD"/>
<stop offset="1" stop-color="#83F8A6"/>
</linearGradient>
<linearGradient id="paint4_linear_581_6306" x1="-192.649" y1="209.941" x2="193.32" y2="-18.2223" gradientUnits="userSpaceOnUse">
<stop stop-color="#02CAFD"/>
<stop offset="1" stop-color="#83F8A6"/>
</linearGradient>
</defs>
</svg>
