<svg width="236" height="68" viewBox="0 0 236 68" fill="none" xmlns="http://www.w3.org/2000/svg">
<path d="M226.796 68H9.2037C4.41884 68 0.5 64.1729 0.5 59.5V8.5C0.5 3.82713 4.41884 2.86102e-06 9.2037 2.86102e-06H226.796C231.581 2.86102e-06 235.5 3.82713 235.5 8.5V59.5C235.5 64.1729 231.581 68 226.796 68Z" fill="black"/>
<path d="M226.796 1.36213C230.826 1.36213 234.105 4.5645 234.105 8.5V59.5C234.105 63.4355 230.826 66.6379 226.796 66.6379H9.2037C5.17389 66.6379 1.89477 63.4355 1.89477 59.5V8.5C1.89477 4.5645 5.17389 1.36213 9.2037 1.36213H226.796ZM226.796 2.86102e-06H9.2037C4.41884 2.86102e-06 0.5 3.82713 0.5 8.5V59.5C0.5 64.1729 4.41884 68 9.2037 68H226.796C231.581 68 235.5 64.1729 235.5 59.5V8.5C235.5 3.82713 231.581 2.86102e-06 226.796 2.86102e-06Z" fill="#A6A6A6"/>
<path d="M18.6647 12.8159C18.1533 13.3386 17.8574 14.1525 17.8574 15.2065V52.802C17.8574 53.856 18.1533 54.6699 18.6647 55.1926L18.7909 55.3074L40.363 34.2486V33.7514L18.7909 12.6926L18.6647 12.8159Z" fill="url(#paint0_linear_574_6537)"/>
<path d="M47.546 41.2717L40.3633 34.2486V33.7514L47.5547 26.7282L47.7157 26.8196L56.2323 31.552C58.6628 32.895 58.6628 35.105 56.2323 36.4565L47.7157 41.1804L47.546 41.2717Z" fill="url(#paint1_linear_574_6537)"/>
<path d="M47.7158 41.1804L40.3634 34L18.665 55.1926C19.4723 56.0214 20.7887 56.1213 22.2858 55.2925L47.7158 41.1804Z" fill="url(#paint2_linear_574_6537)"/>
<path d="M47.7158 26.8196L22.2858 12.7075C20.7887 11.8873 19.4723 11.9871 18.665 12.8159L40.3634 34L47.7158 26.8196Z" fill="url(#paint3_linear_574_6537)"/>
<path d="M83.042 17.4143C83.042 18.8338 82.6068 19.9707 81.7495 20.8186C80.7638 21.8237 79.48 22.3295 77.9068 22.3295C76.4032 22.3295 75.1194 21.8152 74.0663 20.8016C73.0109 19.7731 72.4844 18.5108 72.4844 17C72.4844 15.4891 73.0109 14.2268 74.0663 13.2068C75.1194 12.1847 76.4032 11.6705 77.9068 11.6705C78.6553 11.6705 79.369 11.8213 80.0501 12.1018C80.729 12.3845 81.2816 12.767 81.682 13.2387L80.7725 14.1355C80.074 13.3301 79.1231 12.9327 77.9068 12.9327C76.8101 12.9327 75.8592 13.3067 75.052 14.0611C74.2534 14.8176 73.853 15.7972 73.853 17C73.853 18.2027 74.2534 19.1908 75.052 19.9473C75.8592 20.6932 76.8101 21.0757 77.9068 21.0757C79.0709 21.0757 80.0501 20.6932 80.8225 19.9388C81.3317 19.4395 81.6211 18.751 81.6973 17.8712H77.9068V16.643H82.9636C83.0246 16.9086 83.042 17.1657 83.042 17.4143Z" fill="white" stroke="white" stroke-width="0.16" stroke-miterlimit="10"/>
<path d="M91.0645 13.1559H86.3144V16.3859H90.5967V17.6141H86.3144V20.8441H91.0645V22.0957H84.9697V11.9042H91.0645V13.1559Z" fill="white" stroke="white" stroke-width="0.16" stroke-miterlimit="10"/>
<path d="M96.7261 22.0957H95.3813V13.1559H92.4678V11.9042H99.6418V13.1559H96.7261V22.0957Z" fill="white" stroke="white" stroke-width="0.16" stroke-miterlimit="10"/>
<path d="M104.834 22.0957V11.9042H106.177V22.0957H104.834Z" fill="white" stroke="white" stroke-width="0.16" stroke-miterlimit="10"/>
<path d="M112.127 22.0957H110.794V13.1559H107.869V11.9042H115.052V13.1559H112.127V22.0957Z" fill="white" stroke="white" stroke-width="0.16" stroke-miterlimit="10"/>
<path d="M128.634 20.7846C127.605 21.8152 126.33 22.3295 124.809 22.3295C123.279 22.3295 122.004 21.8152 120.975 20.7846C119.948 19.7561 119.437 18.4938 119.437 17C119.437 15.5061 119.948 14.2438 120.975 13.2153C122.004 12.1847 123.279 11.6705 124.809 11.6705C126.321 11.6705 127.596 12.1847 128.625 13.2238C129.661 14.2608 130.173 15.5146 130.173 17C130.173 18.4938 129.661 19.7561 128.634 20.7846ZM121.969 19.9303C122.744 20.6932 123.686 21.0757 124.809 21.0757C125.923 21.0757 126.874 20.6932 127.64 19.9303C128.412 19.1675 128.804 18.1878 128.804 17C128.804 15.8121 128.412 14.8325 127.64 14.0696C126.874 13.3067 125.923 12.9242 124.809 12.9242C123.686 12.9242 122.744 13.3067 121.969 14.0696C121.197 14.8325 120.805 15.8121 120.805 17C120.805 18.1878 121.197 19.1675 121.969 19.9303Z" fill="white" stroke="white" stroke-width="0.16" stroke-miterlimit="10"/>
<path d="M132.059 22.0957V11.9042H133.691L138.765 19.8305H138.824L138.765 17.8712V11.9042H140.107V22.0957H138.706L133.392 13.7785H133.334L133.392 15.7462V22.0957H132.059Z" fill="white" stroke="white" stroke-width="0.16" stroke-miterlimit="10"/>
<path d="M119.106 36.9793C115.017 36.9793 111.677 40.018 111.677 44.2106C111.677 48.3693 115.017 51.4399 119.106 51.4399C123.203 51.4399 126.543 48.3693 126.543 44.2106C126.543 40.018 123.203 36.9793 119.106 36.9793ZM119.106 48.5924C116.862 48.5924 114.932 46.784 114.932 44.2106C114.932 41.6033 116.862 39.8268 119.106 39.8268C121.349 39.8268 123.288 41.6033 123.288 44.2106C123.288 46.784 121.349 48.5924 119.106 48.5924ZM102.897 36.9793C98.8 36.9793 95.4687 40.018 95.4687 44.2106C95.4687 48.3693 98.8 51.4399 102.897 51.4399C106.992 51.4399 110.326 48.3693 110.326 44.2106C110.326 40.018 106.992 36.9793 102.897 36.9793ZM102.897 48.5924C100.652 48.5924 98.7152 46.784 98.7152 44.2106C98.7152 41.6033 100.652 39.8268 102.897 39.8268C105.141 39.8268 107.071 41.6033 107.071 44.2106C107.071 46.784 105.141 48.5924 102.897 48.5924ZM83.6099 39.1956V42.2684H91.1234C90.9036 43.9854 90.3161 45.2476 89.4153 46.1274C88.3186 47.1899 86.6105 48.3693 83.6099 48.3693C78.9861 48.3693 75.3653 44.7249 75.3653 40.2093C75.3653 35.6936 78.9861 32.0493 83.6099 32.0493C86.1101 32.0493 87.9291 33.0034 89.2717 34.2401L91.4889 32.0748C89.6111 30.3238 87.1132 28.9786 83.6099 28.9786C77.2693 28.9786 71.9404 34.017 71.9404 40.2093C71.9404 46.4015 77.2693 51.4399 83.6099 51.4399C87.037 51.4399 89.6111 50.3434 91.6347 48.2864C93.7084 46.2613 94.3546 43.4138 94.3546 41.1145C94.3546 40.4005 94.2937 39.7439 94.1849 39.1956H83.6099ZM162.479 41.5778C161.867 39.9606 159.981 36.9793 156.138 36.9793C152.33 36.9793 149.16 39.9096 149.16 44.2106C149.16 48.2609 152.297 51.4399 156.503 51.4399C159.904 51.4399 161.867 49.4148 162.674 48.2354L160.15 46.5928C159.308 47.7955 158.161 48.5924 156.503 48.5924C154.856 48.5924 153.675 47.855 152.917 46.4015L162.82 42.4001L162.479 41.5778ZM152.382 43.9854C152.297 41.1974 154.599 39.7694 156.249 39.7694C157.541 39.7694 158.638 40.4005 159.004 41.3036L152.382 43.9854ZM144.333 51H147.589V29.75H144.333V51ZM139.002 38.59H138.894C138.163 37.7443 136.768 36.9793 135.001 36.9793C131.293 36.9793 127.903 40.1583 127.903 44.234C127.903 48.2864 131.293 51.4399 135.001 51.4399C136.768 51.4399 138.163 50.6685 138.894 49.7973H139.002V50.8343C139.002 53.5989 137.49 55.0843 135.051 55.0843C133.062 55.0843 131.828 53.6818 131.319 52.5024L128.488 53.6563C129.304 55.573 131.465 57.9318 135.051 57.9318C138.868 57.9318 142.088 55.7388 142.088 50.4029V37.4191H139.002V38.59ZM135.279 48.5924C133.036 48.5924 131.158 46.7585 131.158 44.234C131.158 41.6861 133.036 39.8268 135.279 39.8268C137.49 39.8268 139.233 41.6861 139.233 44.234C139.233 46.7585 137.49 48.5924 135.279 48.5924ZM177.719 29.75H169.933V51H173.18V42.9484H177.719C181.324 42.9484 184.86 40.4005 184.86 36.3481C184.86 32.2979 181.315 29.75 177.719 29.75ZM177.804 39.9925H173.18V32.7059H177.804C180.228 32.7059 181.611 34.6715 181.611 36.3481C181.611 37.9929 180.228 39.9925 177.804 39.9925ZM197.872 36.9389C195.526 36.9389 193.087 37.9504 192.084 40.1923L194.965 41.3716C195.585 40.1923 196.725 39.8098 197.931 39.8098C199.615 39.8098 201.323 40.7979 201.349 42.5425V42.7656C200.762 42.4341 199.504 41.9433 197.957 41.9433C194.854 41.9433 191.692 43.6114 191.692 46.7245C191.692 49.572 194.234 51.4059 197.091 51.4059C199.276 51.4059 200.481 50.4433 201.238 49.3234H201.349V50.966H204.485V42.8145C204.485 39.0469 201.604 36.9389 197.872 36.9389ZM197.48 48.5839C196.419 48.5839 194.939 48.0696 194.939 46.784C194.939 45.1393 196.784 44.5081 198.381 44.5081C199.811 44.5081 200.481 44.8163 201.349 45.2221C201.095 47.1899 199.36 48.5839 197.48 48.5839ZM215.908 37.4043L212.177 46.6161H212.066L208.208 37.4043H204.707L210.503 50.2775L207.196 57.4409H210.588L219.52 37.4043H215.908ZM186.644 51H189.9V29.75H186.644V51Z" fill="white"/>
<defs>
<linearGradient id="paint0_linear_574_6537" x1="38.4477" y1="53.1935" x2="9.92559" y2="23.9879" gradientUnits="userSpaceOnUse">
<stop stop-color="#00A0FF"/>
<stop offset="0.0066" stop-color="#00A1FF"/>
<stop offset="0.2601" stop-color="#00BEFF"/>
<stop offset="0.5122" stop-color="#00D2FF"/>
<stop offset="0.7604" stop-color="#00DFFF"/>
<stop offset="1" stop-color="#00E3FF"/>
</linearGradient>
<linearGradient id="paint1_linear_574_6537" x1="59.3972" y1="33.9976" x2="17.2767" y2="33.9976" gradientUnits="userSpaceOnUse">
<stop stop-color="#FFE000"/>
<stop offset="0.4087" stop-color="#FFBD00"/>
<stop offset="0.7754" stop-color="#FFA500"/>
<stop offset="1" stop-color="#FF9C00"/>
</linearGradient>
<linearGradient id="paint2_linear_574_6537" x1="43.7178" y1="30.0966" x2="5.03952" y2="-9.50854" gradientUnits="userSpaceOnUse">
<stop stop-color="#FF3A44"/>
<stop offset="1" stop-color="#C31162"/>
</linearGradient>
<linearGradient id="paint3_linear_574_6537" x1="13.2031" y1="67.7005" x2="30.4747" y2="50.0151" gradientUnits="userSpaceOnUse">
<stop stop-color="#32A071"/>
<stop offset="0.0685" stop-color="#2DA771"/>
<stop offset="0.4762" stop-color="#15CF74"/>
<stop offset="0.8009" stop-color="#06E775"/>
<stop offset="1" stop-color="#00F076"/>
</linearGradient>
</defs>
</svg>
