<svg width="76" height="86" viewBox="0 0 76 86" fill="none" xmlns="http://www.w3.org/2000/svg">
<mask id="mask0_574_5820" style="mask-type:luminance" maskUnits="userSpaceOnUse" x="16" y="0" width="60" height="76">
<path d="M16.6123 0H75.8015V75.1226H16.6123V0Z" fill="white"/>
</mask>
<g mask="url(#mask0_574_5820)">
<path d="M35.0113 21.5506C32.0275 19.7802 32.0278 15.3548 35.0117 13.5848C36.3967 12.7632 38.1031 12.7632 39.488 13.5849L67.9596 30.4769C71.4031 32.52 75.7078 29.9665 75.7078 25.8808C75.7078 23.9847 74.7233 22.2328 73.1253 21.2847L47.4066 6.02591C41.1217 2.29714 33.3782 2.29727 27.0934 6.02623L22.3238 8.85618C18.992 10.8331 16.9395 14.4863 16.9395 18.4397C16.9395 22.3936 18.9924 26.0471 22.3252 28.0238L60.9454 50.931C63.6868 52.5569 65.3754 55.562 65.3754 58.8144V65.3851C65.3754 69.4708 69.6797 72.0248 73.1239 69.9826C74.7227 69.0346 75.7078 67.2818 75.7078 65.3851V57.0723C75.7078 50.034 72.0536 43.5301 66.1216 40.0103L35.0113 21.5506Z" fill="white"/>
</g>
<mask id="mask1_574_5820" style="mask-type:luminance" maskUnits="userSpaceOnUse" x="0" y="9" width="60" height="76">
<path d="M0 9.31098H59.1184V84.7165H0V9.31098Z" fill="white"/>
</mask>
<g mask="url(#mask1_574_5820)">
<path d="M43.0129 63.6468C45.9972 65.4176 45.9977 69.8435 43.0137 71.615C41.6279 72.4375 39.9203 72.4378 38.5344 71.6154L10.0646 54.7244C6.62103 52.6815 2.31641 55.2349 2.31641 59.3205C2.31641 61.2166 3.3008 62.9686 4.89881 63.9167L30.6181 79.1758C36.9024 82.9043 44.6457 82.9038 50.9297 79.1745L55.6953 76.3464C59.028 74.3687 61.0808 70.7147 61.0808 66.7603C61.0808 62.8048 59.0269 59.1498 55.6926 57.1726L17.0742 34.2699C14.3333 32.6443 12.6447 29.6397 12.6447 26.3879V19.8136C12.6447 15.7283 8.34014 13.1754 4.89736 15.2189C3.3002 16.167 2.31641 17.9183 2.31641 19.8136V28.1239C2.31641 35.163 5.97082 41.6675 11.9033 45.1876L43.0129 63.6468Z" fill="white"/>
</g>
</svg>
