<svg width="220" height="53" viewBox="0 0 220 53" fill="none" xmlns="http://www.w3.org/2000/svg">
<mask id="mask0_574_6334" style="mask-type:luminance" maskUnits="userSpaceOnUse" x="10" y="0" width="38" height="47">
<path d="M10.5195 0H47.9995V46.2965H10.5195V0Z" fill="white"/>
</mask>
<g mask="url(#mask0_574_6334)">
<path d="M22.1701 13.2812C20.2807 12.1901 20.2809 9.46286 22.1704 8.37199C23.0474 7.86568 24.1279 7.86571 25.0049 8.37209L43.0338 18.7823C45.2143 20.0414 47.9401 18.4677 47.9401 15.9498C47.9401 14.7813 47.3167 13.7016 46.3048 13.1173L30.0191 3.71363C26.0394 1.41567 21.136 1.41575 17.1563 3.71383L14.1361 5.45787C12.0263 6.67623 10.7266 8.92757 10.7266 11.364C10.7266 13.8007 12.0266 16.0523 14.137 17.2705L38.5922 31.3877C40.3281 32.3897 41.3974 34.2417 41.3974 36.2461V40.2955C41.3974 42.8134 44.123 44.3874 46.3039 43.1288C47.3163 42.5446 47.9401 41.4644 47.9401 40.2955V35.1725C47.9401 30.8349 45.6262 26.8267 41.8699 24.6575L22.1701 13.2812Z" fill="white"/>
</g>
<mask id="mask1_574_6334" style="mask-type:luminance" maskUnits="userSpaceOnUse" x="0" y="5" width="38" height="48">
<path d="M0 5.73816H37.4352V52.209H0V5.73816Z" fill="white"/>
</mask>
<g mask="url(#mask1_574_6334)">
<path d="M27.2368 39.2242C29.1265 40.3155 29.1268 43.0431 27.2373 44.1348C26.3598 44.6417 25.2785 44.6419 24.4009 44.1351L6.37312 33.7255C4.19259 32.4665 1.4668 34.0401 1.4668 36.558C1.4668 37.7265 2.09014 38.8062 3.10204 39.3905L19.3881 48.7944C23.3675 51.0922 28.2707 51.0919 32.2499 48.7936L35.2676 47.0507C37.3779 45.8319 38.6778 43.58 38.6778 41.143C38.6778 38.7053 37.3772 36.4528 35.2659 35.2343L10.8118 21.1198C9.07619 20.118 8.00693 18.2663 8.00693 16.2623V12.2107C8.00693 9.69299 5.28117 8.11973 3.10112 9.37911C2.08976 9.96336 1.4668 11.0427 1.4668 12.2107V17.3322C1.4668 21.6702 3.78086 25.6788 7.53746 27.8482L27.2368 39.2242Z" fill="white"/>
</g>
<path d="M74.5276 39.1165C71.4343 39.1165 69.0343 38.4232 67.3276 37.0365C65.6423 35.6498 64.7889 33.6658 64.7676 31.0845H69.0236C69.0449 32.7058 69.5249 33.8685 70.4636 34.5725C71.4236 35.2765 72.8209 35.6285 74.6556 35.6285C76.1489 35.6285 77.2903 35.3512 78.0796 34.7965C78.8689 34.2205 79.2636 33.3992 79.2636 32.3325C79.2636 31.4365 78.9223 30.7538 78.2396 30.2845C77.5783 29.8152 76.3623 29.3992 74.5916 29.0365L72.6716 28.6525C67.7863 27.7352 65.3436 25.4312 65.3436 21.7405C65.3436 19.7778 66.0903 18.2205 67.5836 17.0685C69.0769 15.8952 71.1463 15.3085 73.7916 15.3085C76.7996 15.3085 79.0716 15.9485 80.6076 17.2285C82.1649 18.5085 82.9863 20.3005 83.0716 22.6045H78.8796C78.7943 21.3032 78.3569 20.3432 77.5676 19.7245C76.7996 19.1058 75.5623 18.7965 73.8556 18.7965C72.5329 18.7965 71.5196 19.0418 70.8156 19.5325C70.1116 20.0232 69.7596 20.7165 69.7596 21.6125C69.7596 22.5298 70.0796 23.2338 70.7196 23.7245C71.3809 24.2152 72.5436 24.6312 74.2076 24.9725L76.1916 25.3565C78.8583 25.8898 80.7783 26.6898 81.9516 27.7565C83.1463 28.8018 83.7436 30.2525 83.7436 32.1085C83.7436 34.3272 82.9329 36.0552 81.3116 37.2925C79.6903 38.5085 77.4289 39.1165 74.5276 39.1165ZM95.0626 21.7085C96.8546 21.7085 98.2626 22.2312 99.2866 23.2765C100.332 24.3005 100.855 25.7618 100.855 27.6605V38.6045H96.8226V28.3325C96.8226 26.2418 95.7879 25.1965 93.7186 25.1965C92.6946 25.1965 91.8199 25.5698 91.0946 26.3165C90.3906 27.0418 90.0386 28.0552 90.0386 29.3565V38.6045H86.0066V15.8205H90.0386V24.3005C91.2973 22.5725 92.9719 21.7085 95.0626 21.7085ZM118.98 38.6045H114.948C114.756 38.2632 114.607 37.5912 114.5 36.5885C113.391 38.1885 111.62 38.9885 109.188 38.9885C107.375 38.9885 105.924 38.5512 104.836 37.6765C103.769 36.8018 103.236 35.5858 103.236 34.0285C103.236 31.0205 105.348 29.3032 109.572 28.8765L112.068 28.6525C112.9 28.5458 113.497 28.3538 113.86 28.0765C114.223 27.7778 114.404 27.3405 114.404 26.7645C114.404 26.0605 114.169 25.5485 113.7 25.2285C113.252 24.8872 112.484 24.7165 111.396 24.7165C110.223 24.7165 109.38 24.9192 108.868 25.3245C108.356 25.7085 108.057 26.3805 107.972 27.3405H104.004C104.239 23.5858 106.713 21.7085 111.428 21.7085C116.015 21.7085 118.308 23.3618 118.308 26.6685V35.4685C118.308 36.9192 118.532 37.9645 118.98 38.6045ZM110.148 36.1085C111.407 36.1085 112.431 35.7672 113.22 35.0845C114.009 34.3805 114.404 33.3778 114.404 32.0765V30.5725C114.02 30.9138 113.391 31.1378 112.516 31.2445L110.34 31.5005C109.273 31.6285 108.505 31.8845 108.036 32.2685C107.588 32.6312 107.364 33.1645 107.364 33.8685C107.364 34.5725 107.599 35.1272 108.068 35.5325C108.559 35.9165 109.252 36.1085 110.148 36.1085ZM130.214 21.8365C130.577 21.8365 130.907 21.8578 131.206 21.9005V25.6125H130.182C128.646 25.6125 127.462 26.0072 126.63 26.7965C125.819 27.5645 125.414 28.7058 125.414 30.2205V38.6045H121.382V22.0925H125.286V25.0365C126.203 22.9032 127.846 21.8365 130.214 21.8365ZM148.216 30.6365V31.5965H135.864C136.013 33.0045 136.451 34.0712 137.176 34.7965C137.923 35.5005 138.915 35.8525 140.152 35.8525C141.987 35.8525 143.245 35.0632 143.928 33.4845H147.8C147.373 35.1698 146.477 36.5138 145.112 37.5165C143.747 38.4978 142.083 38.9885 140.12 38.9885C137.667 38.9885 135.683 38.1992 134.168 36.6205C132.653 35.0418 131.896 32.9512 131.896 30.3485C131.896 27.7458 132.643 25.6552 134.136 24.0765C135.651 22.4978 137.624 21.7085 140.056 21.7085C142.552 21.7085 144.536 22.5298 146.008 24.1725C147.48 25.8152 148.216 27.9698 148.216 30.6365ZM140.024 24.8445C137.656 24.8445 136.28 26.1565 135.896 28.7805H144.184C144.013 27.5645 143.565 26.6045 142.84 25.9005C142.115 25.1965 141.176 24.8445 140.024 24.8445ZM167.625 15.8205V19.6925H155.145V25.0685H166.441V28.7805H155.145V34.7325H167.561V38.6045H150.825V15.8205H167.625ZM184.918 38.6045H180.886C180.694 38.2632 180.544 37.5912 180.438 36.5885C179.328 38.1885 177.558 38.9885 175.126 38.9885C173.312 38.9885 171.862 38.5512 170.774 37.6765C169.707 36.8018 169.174 35.5858 169.174 34.0285C169.174 31.0205 171.286 29.3032 175.51 28.8765L178.006 28.6525C178.838 28.5458 179.435 28.3538 179.798 28.0765C180.16 27.7778 180.342 27.3405 180.342 26.7645C180.342 26.0605 180.107 25.5485 179.638 25.2285C179.19 24.8872 178.422 24.7165 177.334 24.7165C176.16 24.7165 175.318 24.9192 174.806 25.3245C174.294 25.7085 173.995 26.3805 173.91 27.3405H169.942C170.176 23.5858 172.651 21.7085 177.366 21.7085C181.952 21.7085 184.246 23.3618 184.246 26.6685V35.4685C184.246 36.9192 184.47 37.9645 184.918 38.6045ZM176.086 36.1085C177.344 36.1085 178.368 35.7672 179.158 35.0845C179.947 34.3805 180.342 33.3778 180.342 32.0765V30.5725C179.958 30.9138 179.328 31.1378 178.454 31.2445L176.278 31.5005C175.211 31.6285 174.443 31.8845 173.974 32.2685C173.526 32.6312 173.302 33.1645 173.302 33.8685C173.302 34.5725 173.536 35.1272 174.006 35.5325C174.496 35.9165 175.19 36.1085 176.086 36.1085ZM193.941 39.0525C189.119 39.0525 186.602 37.1538 186.389 33.3565H190.325C190.431 34.3805 190.762 35.1058 191.317 35.5325C191.893 35.9592 192.789 36.1725 194.005 36.1725C196.181 36.1725 197.269 35.5112 197.269 34.1885C197.269 33.5912 197.034 33.1325 196.565 32.8125C196.095 32.4925 195.253 32.2258 194.036 32.0125L192.149 31.6925C188.543 31.0952 186.741 29.4312 186.741 26.7005C186.741 25.1432 187.338 23.9272 188.533 23.0525C189.727 22.1565 191.413 21.7085 193.589 21.7085C198.303 21.7085 200.735 23.5752 200.885 27.3085H197.077C197.034 26.3272 196.725 25.6338 196.149 25.2285C195.573 24.8018 194.719 24.5885 193.589 24.5885C191.669 24.5885 190.709 25.2285 190.709 26.5085C190.709 27.0632 190.922 27.5005 191.349 27.8205C191.775 28.1192 192.479 28.3538 193.461 28.5245L195.541 28.8445C197.546 29.2072 198.997 29.7832 199.893 30.5725C200.81 31.3618 201.269 32.4605 201.269 33.8685C201.269 35.5325 200.629 36.8125 199.349 37.7085C198.069 38.6045 196.266 39.0525 193.941 39.0525ZM218.997 30.6365V31.5965H206.645C206.795 33.0045 207.232 34.0712 207.957 34.7965C208.704 35.5005 209.696 35.8525 210.933 35.8525C212.768 35.8525 214.027 35.0632 214.709 33.4845H218.581C218.155 35.1698 217.259 36.5138 215.893 37.5165C214.528 38.4978 212.864 38.9885 210.901 38.9885C208.448 38.9885 206.464 38.1992 204.949 36.6205C203.435 35.0418 202.677 32.9512 202.677 30.3485C202.677 27.7458 203.424 25.6552 204.917 24.0765C206.432 22.4978 208.405 21.7085 210.837 21.7085C213.333 21.7085 215.317 22.5298 216.789 24.1725C218.261 25.8152 218.997 27.9698 218.997 30.6365ZM210.805 24.8445C208.437 24.8445 207.061 26.1565 206.677 28.7805H214.965C214.795 27.5645 214.347 26.6045 213.621 25.9005C212.896 25.1965 211.957 24.8445 210.805 24.8445Z" fill="white"/>
</svg>
