<svg width="319" height="77" viewBox="0 0 319 77" fill="none" xmlns="http://www.w3.org/2000/svg">
<mask id="mask0_574_6770" style="mask-type:luminance" maskUnits="userSpaceOnUse" x="15" y="0" width="55" height="68">
<path d="M15.2529 0H69.5989V67.261H15.2529V0Z" fill="white"/>
</mask>
<g mask="url(#mask0_574_6770)">
<path d="M32.1468 19.2955C29.4072 17.7103 29.4074 13.7481 32.1472 12.1632C33.4189 11.4277 34.9856 11.4277 36.2572 12.1634L62.3991 27.2876C65.5609 29.1169 69.5133 26.8306 69.5133 23.1725C69.5133 21.4749 68.6093 19.9062 67.1421 19.0574L43.5278 5.39543C37.7573 2.05689 30.6473 2.057 24.8768 5.39572L20.4975 7.92952C17.4383 9.69959 15.5537 12.9704 15.5537 16.5101C15.5537 20.0502 17.4387 23.3214 20.4988 25.0912L55.9588 45.6011C58.4759 47.0569 60.0264 49.7475 60.0264 52.6596V58.5427C60.0264 62.2007 63.9785 64.4875 67.1408 62.659C68.6088 61.8102 69.5133 60.2409 69.5133 58.5427V51.0998C69.5133 44.798 66.1581 38.9748 60.7115 35.8233L32.1468 19.2955Z" fill="#FF9501"/>
</g>
<mask id="mask1_574_6770" style="mask-type:luminance" maskUnits="userSpaceOnUse" x="0" y="8" width="55" height="68">
<path d="M0 8.33643H54.281V75.8507H0V8.33643Z" fill="white"/>
</mask>
<g mask="url(#mask1_574_6770)">
<path d="M39.4935 56.986C42.2335 58.5714 42.234 62.5342 39.4942 64.1202C38.2218 64.8567 36.6539 64.8569 35.3814 64.1207L9.24112 48.9973C6.07935 47.1682 2.12695 49.4543 2.12695 53.1124C2.12695 54.81 3.0308 56.3787 4.49805 57.2276L28.1128 70.8898C33.883 74.2281 40.9926 74.2277 46.7625 70.8887L51.1381 68.3565C54.1981 66.5858 56.0829 63.3142 56.0829 59.7736C56.0829 56.2321 54.197 52.9596 51.1356 51.1893L15.6772 30.6833C13.1606 29.2279 11.6101 26.5377 11.6101 23.6262V17.7399C11.6101 14.0821 7.65779 11.7965 4.49672 13.6261C3.03025 14.4749 2.12695 16.043 2.12695 17.7399V25.1806C2.12695 31.483 5.48234 37.3068 10.9294 40.4586L39.4935 56.986Z" fill="#FF9501"/>
</g>
<path d="M108.066 56.8297C103.581 56.8297 100.101 55.8225 97.6261 53.8078C95.1824 51.7932 93.9449 48.9108 93.9141 45.1606H100.085C100.116 47.516 100.812 49.2052 102.173 50.228C103.565 51.2508 105.591 51.7622 108.252 51.7622C110.417 51.7622 112.072 51.3594 113.216 50.5535C114.361 49.7166 114.933 48.5234 114.933 46.9737C114.933 45.672 114.438 44.6801 113.448 43.9983C112.49 43.3165 110.726 42.7121 108.159 42.1852L105.375 41.6273C98.2912 40.2946 94.7493 36.9473 94.7493 31.5853C94.7493 28.7339 95.832 26.4714 97.9973 24.7977C100.163 23.0931 103.163 22.2407 106.999 22.2407C111.36 22.2407 114.655 23.1705 116.882 25.0302C119.14 26.8898 120.331 29.4933 120.455 32.8406H114.376C114.253 30.95 113.619 29.5553 112.474 28.6564C111.36 27.7576 109.566 27.3082 107.092 27.3082C105.174 27.3082 103.704 27.6646 102.684 28.3775C101.663 29.0904 101.152 30.0976 101.152 31.3994C101.152 32.732 101.616 33.7548 102.544 34.4677C103.503 35.1806 105.189 35.785 107.602 36.2809L110.479 36.8388C114.346 37.6136 117.13 38.7758 118.831 40.3256C120.563 41.8442 121.429 43.9518 121.429 46.6483C121.429 49.8717 120.254 52.3822 117.903 54.1797C115.552 55.9464 112.273 56.8297 108.066 56.8297ZM137.842 31.5388C140.44 31.5388 142.482 32.2982 143.967 33.8169C145.482 35.3046 146.24 37.4276 146.24 40.1861V56.0859H140.394V41.1624C140.394 38.125 138.894 36.6063 135.893 36.6063C134.408 36.6063 133.14 37.1486 132.088 38.2335C131.067 39.2872 130.557 40.7595 130.557 42.6501V56.0859H124.711V22.9846H130.557V35.3046C132.382 32.7941 134.81 31.5388 137.842 31.5388ZM172.521 56.0859H166.675C166.397 55.59 166.181 54.6137 166.025 53.1569C164.417 55.4815 161.849 56.6437 158.323 56.6437C155.694 56.6437 153.59 56.0084 152.013 54.7376C150.466 53.4668 149.693 51.7002 149.693 49.4377C149.693 45.0676 152.755 42.5726 158.88 41.9527L162.499 41.6273C163.705 41.4723 164.571 41.1933 165.097 40.7905C165.624 40.3565 165.886 39.7212 165.886 38.8843C165.886 37.8616 165.546 37.1177 164.865 36.6528C164.216 36.1569 163.102 35.9089 161.525 35.9089C159.824 35.9089 158.601 36.2034 157.859 36.7923C157.117 37.3502 156.683 38.3265 156.56 39.7212H150.806C151.147 34.2662 154.734 31.5388 161.571 31.5388C168.222 31.5388 171.547 33.9408 171.547 38.7449V51.5298C171.547 53.6374 171.872 55.156 172.521 56.0859ZM159.715 52.4596C161.541 52.4596 163.025 51.9637 164.169 50.9719C165.314 49.9491 165.886 48.4923 165.886 46.6018V44.4167C165.329 44.9126 164.417 45.238 163.149 45.393L159.993 45.7649C158.446 45.9509 157.333 46.3228 156.653 46.8807C156.003 47.4077 155.678 48.1825 155.678 49.2052C155.678 50.228 156.019 51.0339 156.699 51.6228C157.411 52.1806 158.416 52.4596 159.715 52.4596ZM188.811 31.7248C189.337 31.7248 189.816 31.7557 190.249 31.8178V37.2107H188.764C186.537 37.2107 184.82 37.7841 183.614 38.9308C182.438 40.0466 181.851 41.7047 181.851 43.9053V56.0859H176.004V32.0967H181.665V36.3739C182.995 33.2745 185.377 31.7248 188.811 31.7248ZM214.914 44.5097V45.9044H197.003C197.219 47.95 197.854 49.4997 198.906 50.5535C199.989 51.5763 201.427 52.0877 203.221 52.0877C205.882 52.0877 207.706 50.9409 208.696 48.6474H214.31C213.691 51.0958 212.392 53.0484 210.413 54.5052C208.434 55.9308 206.021 56.6437 203.174 56.6437C199.618 56.6437 196.741 55.497 194.544 53.2034C192.347 50.9099 191.25 47.8726 191.25 44.0913C191.25 40.31 192.333 37.2727 194.498 34.9791C196.694 32.6856 199.555 31.5388 203.082 31.5388C206.701 31.5388 209.578 32.732 211.712 35.1186C213.846 37.5052 214.914 40.6354 214.914 44.5097ZM203.035 36.0949C199.602 36.0949 197.606 38.001 197.05 41.8133H209.067C208.819 40.0466 208.17 38.6519 207.118 37.6291C206.067 36.6063 204.706 36.0949 203.035 36.0949ZM243.057 22.9846V28.6099H224.961V36.4203H241.34V41.8133H224.961V50.4605H242.964V56.0859H218.697V22.9846H243.057ZM268.132 56.0859H262.285C262.007 55.59 261.789 54.6137 261.636 53.1569C260.026 55.4815 257.46 56.6437 253.933 56.6437C251.303 56.6437 249.2 56.0084 247.623 54.7376C246.076 53.4668 245.303 51.7002 245.303 49.4377C245.303 45.0676 248.365 42.5726 254.49 41.9527L258.109 41.6273C259.316 41.4723 260.181 41.1933 260.708 40.7905C261.232 40.3565 261.496 39.7212 261.496 38.8843C261.496 37.8616 261.156 37.1177 260.476 36.6528C259.826 36.1569 258.712 35.9089 257.135 35.9089C255.432 35.9089 254.212 36.2034 253.469 36.7923C252.727 37.3502 252.293 38.3265 252.17 39.7212H246.416C246.756 34.2662 250.344 31.5388 257.181 31.5388C263.831 31.5388 267.157 33.9408 267.157 38.7449V51.5298C267.157 53.6374 267.482 55.156 268.132 56.0859ZM255.325 52.4596C257.149 52.4596 258.634 51.9637 259.78 50.9719C260.924 49.9491 261.496 48.4923 261.496 46.6018V44.4167C260.94 44.9126 260.026 45.238 258.759 45.393L255.604 45.7649C254.056 45.9509 252.943 46.3228 252.263 46.8807C251.613 47.4077 251.288 48.1825 251.288 49.2052C251.288 50.228 251.628 51.0339 252.309 51.6228C253.02 52.1806 254.026 52.4596 255.325 52.4596ZM281.215 56.7367C274.223 56.7367 270.573 53.9782 270.265 48.4614H275.972C276.125 49.9491 276.605 51.0028 277.41 51.6228C278.245 52.2427 279.545 52.5526 281.308 52.5526C284.463 52.5526 286.041 51.5918 286.041 49.6702C286.041 48.8024 285.7 48.136 285.02 47.6711C284.338 47.2062 283.117 46.8187 281.353 46.5088L278.617 46.0439C273.388 45.1761 270.775 42.7586 270.775 38.7914C270.775 36.5289 271.641 34.7622 273.373 33.4914C275.105 32.1897 277.549 31.5388 280.705 31.5388C287.54 31.5388 291.066 34.2508 291.284 39.6747H285.762C285.7 38.249 285.252 37.2416 284.417 36.6528C283.581 36.0329 282.343 35.723 280.705 35.723C277.921 35.723 276.529 36.6528 276.529 38.5124C276.529 39.3183 276.837 39.9536 277.457 40.4185C278.074 40.8525 279.095 41.1933 280.519 41.4413L283.535 41.9062C286.442 42.4332 288.546 43.27 289.845 44.4167C291.175 45.5634 291.841 47.1597 291.841 49.2052C291.841 51.6228 290.912 53.4824 289.056 54.7841C287.201 56.0859 284.586 56.7367 281.215 56.7367ZM317.546 44.5097V45.9044H299.636C299.853 47.95 300.487 49.4997 301.538 50.5535C302.621 51.5763 304.06 52.0877 305.853 52.0877C308.514 52.0877 310.34 50.9409 311.329 48.6474H316.943C316.325 51.0958 315.026 53.0484 313.045 54.5052C311.066 55.9308 308.653 56.6437 305.807 56.6437C302.25 56.6437 299.373 55.497 297.176 53.2034C294.981 50.9099 293.882 47.8726 293.882 44.0913C293.882 40.31 294.965 37.2727 297.13 34.9791C299.327 32.6856 302.188 31.5388 305.714 31.5388C309.333 31.5388 312.21 32.732 314.344 35.1186C316.479 37.5052 317.546 40.6354 317.546 44.5097ZM305.668 36.0949C302.234 36.0949 300.239 38.001 299.682 41.8133H311.7C311.453 40.0466 310.804 38.6519 309.751 37.6291C308.7 36.6063 307.338 36.0949 305.668 36.0949Z" fill="#FF9501"/>
</svg>
