<svg width="345" height="219" viewBox="0 0 345 219" fill="none" xmlns="http://www.w3.org/2000/svg">
<path d="M0 20.6446V197.749C0 209.144 9.24921 218.393 20.6446 218.393H324.355C335.751 218.393 345 209.144 345 197.749V20.6446C345 9.24919 335.751 0 324.355 0H20.6344C16.5566 0 12.7445 1.18553 9.55582 3.23977C3.8121 6.88835 0 13.327 0 20.6446Z" fill="url(#paint0_linear_581_6389)"/>
<path d="M-0.000198364 20.6446V155.121C32.4486 167.426 69.0264 163.276 77.9076 147.65C84.4179 136.193 71.1419 127.261 74.8314 106.126C76.5892 96.1098 81.1985 88.7922 87.77 81.8835C96.5695 72.5934 108.905 64.0596 122.508 50.753C131.257 42.1988 152.698 21.2272 164.39 0H20.6444C16.5666 0 12.7545 1.18553 9.5556 3.24999C3.8017 6.88835 -0.000198364 13.3168 -0.000198364 20.6446Z" fill="url(#paint1_linear_581_6389)"/>
<path d="M-3.05176e-05 67.2585V197.749C-3.05176e-05 209.144 9.23895 218.383 20.6344 218.383H324.355C335.751 218.383 344.99 209.144 344.99 197.749V97.5509C339.042 91.6641 332.082 86.1555 323.977 81.5156C299.265 67.3403 275.381 68.2908 228.624 70.7538C172.29 73.7176 168.325 83.3654 128.661 84.5918C112.339 85.1028 99.0532 83.8968 87.7702 81.8835C49.7412 75.0054 34.6768 58.643 4.08801 66.1343C2.72876 66.4716 1.36948 66.8395 -3.05176e-05 67.2585Z" fill="url(#paint2_linear_581_6389)"/>
<path d="M238.721 0C244.342 54.8717 289.341 98.0823 345 100.913V20.6446C345 9.2492 335.751 0 324.355 0H238.721Z" fill="url(#paint3_linear_581_6389)"/>
<path opacity="0.33" d="M88.9043 218.383H234.02L171.329 155.693C165.903 150.276 157.031 150.276 151.605 155.693L88.9043 218.383Z" fill="url(#paint4_linear_581_6389)"/>
<path opacity="0.27" d="M0 195.327V197.739C0 209.134 9.24921 218.383 20.6446 218.383H324.355C335.751 218.383 345 209.134 345 197.739V116.53C339.277 113.484 332.664 111.164 325.255 110.346C308.085 108.476 294.615 115.63 278.794 124.287C248.451 140.894 243.678 154.027 226.518 164.942C193.507 185.945 166.383 165.872 110.357 167.262C68.1477 168.325 23.3223 181.202 0 195.327Z" fill="url(#paint5_linear_581_6389)"/>
<path opacity="0.53" d="M345 20.6446V197.749C345 209.144 335.751 218.393 324.355 218.393H20.6446C9.24919 218.393 0 209.144 0 197.749V20.6446C0 9.24919 9.24919 0 20.6446 0H324.366C328.443 0 332.256 1.18553 335.444 3.23977C341.188 6.88835 345 13.327 345 20.6446Z" fill="url(#paint6_linear_581_6389)"/>
<path d="M36.376 183H34.088L33.192 180.488H28.2L27.32 183H25.096L29.432 171.608H31.96L36.376 183ZM29.288 177.416L28.856 178.648H32.536L32.088 177.416C31.7147 176.467 31.2453 175.165 30.68 173.512C30.232 174.835 29.768 176.136 29.288 177.416ZM45.3994 183H43.3834C43.2874 182.829 43.2127 182.493 43.1594 181.992C42.6047 182.792 41.7194 183.192 40.5034 183.192C39.5967 183.192 38.8714 182.973 38.3274 182.536C37.794 182.099 37.5274 181.491 37.5274 180.712C37.5274 179.208 38.5834 178.349 40.6954 178.136L41.9434 178.024C42.3594 177.971 42.658 177.875 42.8394 177.736C43.0207 177.587 43.1114 177.368 43.1114 177.08C43.1114 176.728 42.994 176.472 42.7594 176.312C42.5354 176.141 42.1514 176.056 41.6074 176.056C41.0207 176.056 40.5994 176.157 40.3434 176.36C40.0874 176.552 39.938 176.888 39.8954 177.368H37.9114C38.0287 175.491 39.266 174.552 41.6234 174.552C43.9167 174.552 45.0634 175.379 45.0634 177.032V181.432C45.0634 182.157 45.1754 182.68 45.3994 183ZM40.9834 181.752C41.6127 181.752 42.1247 181.581 42.5194 181.24C42.914 180.888 43.1114 180.387 43.1114 179.736V178.984C42.9194 179.155 42.6047 179.267 42.1674 179.32L41.0794 179.448C40.546 179.512 40.162 179.64 39.9274 179.832C39.7034 180.013 39.5914 180.28 39.5914 180.632C39.5914 180.984 39.7087 181.261 39.9434 181.464C40.1887 181.656 40.5354 181.752 40.9834 181.752ZM53.2103 175.816V171.608H55.2263V183H53.2743V181.848C52.6663 182.744 51.7969 183.192 50.6663 183.192C49.5249 183.192 48.6236 182.797 47.9623 182.008C47.2903 181.219 46.9543 180.173 46.9543 178.872C46.9543 177.549 47.2903 176.499 47.9623 175.72C48.6129 174.941 49.5143 174.552 50.6663 174.552C51.7756 174.552 52.6236 174.973 53.2103 175.816ZM49.0183 178.936C49.0183 179.789 49.2049 180.435 49.5783 180.872C49.9516 181.309 50.4689 181.528 51.1303 181.528C51.7916 181.528 52.3143 181.299 52.6983 180.84C53.0716 180.381 53.2583 179.725 53.2583 178.872C53.2583 178.019 53.0716 177.363 52.6983 176.904C52.3249 176.445 51.8023 176.216 51.1303 176.216C50.4796 176.216 49.9623 176.456 49.5783 176.936C49.2049 177.416 49.0183 178.083 49.0183 178.936ZM65.4455 179.016V179.496H59.2695C59.3442 180.2 59.5628 180.733 59.9255 181.096C60.2988 181.448 60.7948 181.624 61.4135 181.624C62.3308 181.624 62.9602 181.229 63.3015 180.44H65.2375C65.0242 181.283 64.5762 181.955 63.8935 182.456C63.2108 182.947 62.3788 183.192 61.3975 183.192C60.1708 183.192 59.1788 182.797 58.4215 182.008C57.6642 181.219 57.2855 180.173 57.2855 178.872C57.2855 177.571 57.6588 176.525 58.4055 175.736C59.1628 174.947 60.1495 174.552 61.3655 174.552C62.6135 174.552 63.6055 174.963 64.3415 175.784C65.0775 176.605 65.4455 177.683 65.4455 179.016ZM61.3495 176.12C60.1655 176.12 59.4775 176.776 59.2855 178.088H63.4295C63.3442 177.48 63.1202 177 62.7575 176.648C62.3948 176.296 61.9255 176.12 61.3495 176.12ZM69.5633 183H67.5473V171.608H69.5633V183ZM86.801 183H84.513L83.617 180.488H78.625L77.745 183H75.521L79.857 171.608H82.385L86.801 183ZM79.713 177.416L79.281 178.648H82.961L82.513 177.416C82.1397 176.467 81.6703 175.165 81.105 173.512C80.657 174.835 80.193 176.136 79.713 177.416ZM91.7577 183.224C89.3471 183.224 88.0884 182.275 87.9817 180.376H89.9497C90.0031 180.888 90.1684 181.251 90.4457 181.464C90.7337 181.677 91.1817 181.784 91.7897 181.784C92.8777 181.784 93.4217 181.453 93.4217 180.792C93.4217 180.493 93.3044 180.264 93.0697 180.104C92.8351 179.944 92.4137 179.811 91.8057 179.704L90.8617 179.544C89.0591 179.245 88.1577 178.413 88.1577 177.048C88.1577 176.269 88.4564 175.661 89.0537 175.224C89.6511 174.776 90.4937 174.552 91.5817 174.552C93.9391 174.552 95.1551 175.485 95.2297 177.352H93.3257C93.3044 176.861 93.1497 176.515 92.8617 176.312C92.5737 176.099 92.1471 175.992 91.5817 175.992C90.6217 175.992 90.1417 176.312 90.1417 176.952C90.1417 177.229 90.2484 177.448 90.4617 177.608C90.6751 177.757 91.0271 177.875 91.5177 177.96L92.5577 178.12C93.5604 178.301 94.2857 178.589 94.7337 178.984C95.1924 179.379 95.4217 179.928 95.4217 180.632C95.4217 181.464 95.1017 182.104 94.4617 182.552C93.8217 183 92.9204 183.224 91.7577 183.224ZM104.921 183H102.905C102.809 182.829 102.735 182.493 102.681 181.992C102.127 182.792 101.241 183.192 100.025 183.192C99.1186 183.192 98.3933 182.973 97.8493 182.536C97.3159 182.099 97.0493 181.491 97.0493 180.712C97.0493 179.208 98.1053 178.349 100.217 178.136L101.465 178.024C101.881 177.971 102.18 177.875 102.361 177.736C102.543 177.587 102.633 177.368 102.633 177.08C102.633 176.728 102.516 176.472 102.281 176.312C102.057 176.141 101.673 176.056 101.129 176.056C100.543 176.056 100.121 176.157 99.8653 176.36C99.6093 176.552 99.4599 176.888 99.4173 177.368H97.4333C97.5506 175.491 98.7879 174.552 101.145 174.552C103.439 174.552 104.585 175.379 104.585 177.032V181.432C104.585 182.157 104.697 182.68 104.921 183ZM100.505 181.752C101.135 181.752 101.647 181.581 102.041 181.24C102.436 180.888 102.633 180.387 102.633 179.736V178.984C102.441 179.155 102.127 179.267 101.689 179.32L100.601 179.448C100.068 179.512 99.6839 179.64 99.4493 179.832C99.2253 180.013 99.1133 180.28 99.1133 180.632C99.1133 180.984 99.2306 181.261 99.4653 181.464C99.7106 181.656 100.057 181.752 100.505 181.752ZM112.732 175.816V171.608H114.748V183H112.796V181.848C112.188 182.744 111.319 183.192 110.188 183.192C109.047 183.192 108.145 182.797 107.484 182.008C106.812 181.219 106.476 180.173 106.476 178.872C106.476 177.549 106.812 176.499 107.484 175.72C108.135 174.941 109.036 174.552 110.188 174.552C111.297 174.552 112.145 174.973 112.732 175.816ZM108.54 178.936C108.54 179.789 108.727 180.435 109.1 180.872C109.473 181.309 109.991 181.528 110.652 181.528C111.313 181.528 111.836 181.299 112.22 180.84C112.593 180.381 112.78 179.725 112.78 178.872C112.78 178.019 112.593 177.363 112.22 176.904C111.847 176.445 111.324 176.216 110.652 176.216C110.001 176.216 109.484 176.456 109.1 176.936C108.727 177.416 108.54 178.083 108.54 178.936Z" fill="white"/>
<path d="M34.9739 92.3694V94.1068L32.5006 93.9944L33.9416 95.9771L32.3882 96.9071L31.1618 94.6791L29.9354 96.9071L28.4126 95.9771L29.8229 93.9944L27.3701 94.1068V92.3694L29.8229 92.5022L28.4126 90.4889L29.9354 89.5588L31.1618 91.7868L32.3882 89.5588L33.9416 90.4889L32.5006 92.5022L34.9739 92.3694Z" fill="white"/>
<path d="M47.7288 92.3692V94.1067L45.2555 93.9942L46.6965 95.9769L45.1431 96.907L43.9167 94.679L42.6902 96.907L41.1674 95.9769L42.5778 93.9942L40.125 94.1067V92.3692L42.5778 92.5021L41.1674 90.4887L42.6902 89.5587L43.9167 91.7867L45.1431 89.5587L46.6965 90.4887L45.2555 92.5021L47.7288 92.3692Z" fill="white"/>
<path d="M60.4934 92.3692V94.1067L58.0201 93.9942L59.4612 95.9769L57.9077 96.907L56.6813 94.679L55.4549 96.907L53.9321 95.9769L55.3425 93.9942L52.8896 94.1067V92.3692L55.3425 92.5021L53.9321 90.4887L55.4549 89.5587L56.6813 91.7867L57.9077 89.5587L59.4612 90.4887L58.0201 92.5021L60.4934 92.3692Z" fill="white"/>
<path d="M73.2581 92.3692V94.1067L70.7848 93.9942L72.2258 95.9769L70.6724 96.907L69.446 94.679L68.2195 96.907L66.6968 95.9769L68.1071 93.9942L65.6543 94.1067V92.3692L68.1071 92.5021L66.6968 90.4887L68.2195 89.5587L69.446 91.7867L70.6724 89.5587L72.2258 90.4887L70.7848 92.5021L73.2581 92.3692Z" fill="white"/>
<path d="M94.8635 92.3692V94.1067L92.3903 93.9942L93.8313 95.9769L92.2778 96.907L91.0514 94.679L89.825 96.907L88.3022 95.9769L89.7126 93.9942L87.2598 94.1067V92.3692L89.7126 92.5021L88.3022 90.4887L89.825 89.5587L91.0514 91.7867L92.2778 89.5587L93.8313 90.4887L92.3903 92.5021L94.8635 92.3692Z" fill="white"/>
<path d="M107.629 92.3692V94.1067L105.155 93.9942L106.596 95.9769L105.043 96.907L103.817 94.679L102.59 96.907L101.067 95.9769L102.478 93.9942L100.025 94.1067V92.3692L102.478 92.5021L101.067 90.4887L102.59 89.5587L103.817 91.7867L105.043 89.5587L106.596 90.4887L105.155 92.5021L107.629 92.3692Z" fill="white"/>
<path d="M120.393 92.3692V94.1067L117.92 93.9942L119.361 95.9769L117.808 96.907L116.581 94.679L115.355 96.907L113.832 95.9769L115.242 93.9942L112.79 94.1067V92.3692L115.242 92.5021L113.832 90.4887L115.355 89.5587L116.581 91.7867L117.808 89.5587L119.361 90.4887L117.92 92.5021L120.393 92.3692Z" fill="white"/>
<path d="M133.148 92.3692V94.1067L130.674 93.9942L132.115 95.9769L130.562 96.907L129.336 94.679L128.109 96.907L126.586 95.9769L127.997 93.9942L125.544 94.1067V92.3692L127.997 92.5021L126.586 90.4887L128.109 89.5587L129.336 91.7867L130.562 89.5587L132.115 90.4887L130.674 92.5021L133.148 92.3692Z" fill="white"/>
<path d="M154.763 92.3692V94.1067L152.29 93.9942L153.731 95.9769L152.178 96.907L150.951 94.679L149.725 96.907L148.202 95.9769L149.612 93.9942L147.16 94.1067V92.3692L149.612 92.5021L148.202 90.4887L149.725 89.5587L150.951 91.7867L152.178 89.5587L153.731 90.4887L152.29 92.5021L154.763 92.3692Z" fill="white"/>
<path d="M167.518 92.3692V94.1067L165.045 93.9942L166.486 95.9769L164.932 96.907L163.706 94.679L162.479 96.907L160.957 95.9769L162.367 93.9942L159.914 94.1067V92.3692L162.367 92.5021L160.957 90.4887L162.479 89.5587L163.706 91.7867L164.932 89.5587L166.486 90.4887L165.045 92.5021L167.518 92.3692Z" fill="white"/>
<path d="M180.283 92.3692V94.1067L177.81 93.9942L179.251 95.9769L177.698 96.907L176.471 94.679L175.245 96.907L173.722 95.9769L175.133 93.9942L172.68 94.1067V92.3692L175.133 92.5021L173.722 90.4887L175.245 89.5587L176.471 91.7867L177.698 89.5587L179.251 90.4887L177.81 92.5021L180.283 92.3692Z" fill="white"/>
<path d="M193.048 92.3692V94.1067L190.575 93.9942L192.016 95.9769L190.462 96.907L189.236 94.679L188.01 96.907L186.487 95.9769L187.897 93.9942L185.444 94.1067V92.3692L187.897 92.5021L186.487 90.4887L188.01 89.5587L189.236 91.7867L190.462 89.5587L192.016 90.4887L190.575 92.5021L193.048 92.3692Z" fill="white"/>
<path d="M206.467 108.967V106.902L213.192 100.044C214.991 98.2457 215.89 96.7025 215.89 95.4147C215.89 94.3416 215.563 93.5138 214.909 92.9108C214.255 92.3078 213.458 92.0115 212.518 92.0115C210.719 92.0115 209.411 92.8597 208.603 94.5665L206.477 93.3196C207.07 92.083 207.908 91.153 208.971 90.5193C210.034 89.8857 211.209 89.5688 212.497 89.5688C214.091 89.5688 215.481 90.1003 216.657 91.1427C217.832 92.1954 218.425 93.6058 218.425 95.3841C218.425 97.3055 217.29 99.4006 215.022 101.669L210.167 106.514H218.783V108.967H206.467Z" fill="white"/>
<path d="M230.188 97.7245C231.639 98.0004 232.835 98.6238 233.755 99.6049C234.685 100.586 235.145 101.833 235.145 103.335C235.145 105.185 234.511 106.647 233.244 107.72C231.976 108.793 230.433 109.324 228.614 109.324C227.163 109.324 225.875 108.997 224.751 108.333C223.627 107.669 222.829 106.718 222.359 105.461L224.485 104.204C225.047 105.962 226.427 106.841 228.624 106.841C229.8 106.841 230.76 106.534 231.506 105.911C232.252 105.298 232.62 104.429 232.62 103.325C232.62 102.221 232.252 101.353 231.506 100.729C230.76 100.106 229.8 99.7889 228.624 99.7889H227.97L226.958 98.2355L231.363 92.2771H222.901V89.9061H234.327L234.317 92.1443L230.188 97.7245Z" fill="white"/>
<path d="M253.949 102.978V105.349H251.64V108.967H249.105V105.349H239.386V102.978L246.213 89.9164H248.931L242.104 102.978H249.095V97.5917H251.629V102.978H253.949Z" fill="white"/>
<path d="M263.904 97.3464C265.703 97.3464 267.226 97.8778 268.462 98.9407C269.709 100.004 270.333 101.465 270.333 103.335C270.333 105.185 269.699 106.647 268.432 107.72C267.164 108.793 265.621 109.324 263.802 109.324C262.351 109.324 261.053 108.977 259.908 108.282C258.763 107.587 257.966 106.575 257.517 105.247L259.663 104.02C259.918 104.95 260.409 105.645 261.135 106.125C261.86 106.606 262.749 106.851 263.802 106.851C264.998 106.851 265.969 106.544 266.715 105.921C267.461 105.298 267.829 104.439 267.829 103.335C267.829 102.232 267.461 101.363 266.715 100.739C265.969 100.116 265.018 99.7992 263.853 99.7992H258.467L259.152 89.9164H269.597V92.2874H261.462L261.124 97.3464H263.904Z" fill="white"/>
<path d="M28.9844 161.008C27.8704 161.008 26.9506 160.64 26.2249 159.904C25.4993 159.168 25.1416 158.269 25.1416 157.196C25.1416 156.123 25.4993 155.223 26.2249 154.487C26.9506 153.751 27.8704 153.384 28.9844 153.384C29.6589 153.384 30.2721 153.547 30.8342 153.864C31.3963 154.191 31.8358 154.62 32.1526 155.162L31.3043 155.652C31.0897 155.244 30.7831 154.927 30.3641 154.682C29.945 154.436 29.4851 154.324 28.9844 154.324C28.1361 154.324 27.4513 154.6 26.9097 155.141C26.3782 155.683 26.1023 156.368 26.1023 157.185C26.1023 157.993 26.368 158.678 26.9097 159.219C27.4411 159.761 28.1361 160.037 28.9844 160.037C29.4851 160.037 29.945 159.914 30.3641 159.679C30.7831 159.434 31.0897 159.117 31.3043 158.718L32.1526 159.199C31.846 159.74 31.4065 160.18 30.8444 160.507C30.2823 160.834 29.6589 161.008 28.9844 161.008Z" fill="white"/>
<path d="M37.4876 155.621H38.3972V160.875H37.4876V159.975C37.0277 160.67 36.3736 161.018 35.5049 161.018C34.769 161.018 34.1456 160.752 33.6244 160.21C33.1032 159.679 32.8477 159.025 32.8477 158.248C32.8477 157.482 33.1032 156.827 33.6244 156.286C34.1456 155.754 34.769 155.478 35.5049 155.478C36.3736 155.478 37.0379 155.826 37.4876 156.521V155.621ZM35.6173 160.118C36.1487 160.118 36.5984 159.934 36.9459 159.577C37.3036 159.219 37.4774 158.769 37.4774 158.238C37.4774 157.706 37.3036 157.257 36.9459 156.899C36.5882 156.541 36.1487 156.357 35.6173 156.357C35.0961 156.357 34.6464 156.541 34.2989 156.899C33.9412 157.257 33.7675 157.706 33.7675 158.238C33.7675 158.769 33.9412 159.219 34.2989 159.577C34.6566 159.945 35.0961 160.118 35.6173 160.118Z" fill="white"/>
<path d="M40.6967 156.5C40.9931 155.846 41.545 155.519 42.3319 155.519V156.47C41.8822 156.449 41.5041 156.572 41.177 156.827C40.8602 157.083 40.6967 157.502 40.6967 158.074V160.854H39.7871V155.601H40.6967V156.5Z" fill="white"/>
<path d="M47.2884 153.516H48.198V160.864H47.2884V159.965C46.8285 160.66 46.1744 161.007 45.3057 161.007C44.5698 161.007 43.9464 160.742 43.4252 160.2C42.9039 159.669 42.6484 159.015 42.6484 158.238C42.6484 157.471 42.9039 156.817 43.4252 156.276C43.9464 155.744 44.5698 155.468 45.3057 155.468C46.1744 155.468 46.8387 155.816 47.2884 156.511V153.516ZM45.4283 160.118C45.9598 160.118 46.4094 159.934 46.7569 159.577C47.1146 159.219 47.2884 158.769 47.2884 158.238C47.2884 157.706 47.1146 157.257 46.7569 156.899C46.3992 156.541 45.9598 156.357 45.4283 156.357C44.9071 156.357 44.4574 156.541 44.1099 156.899C43.7522 157.257 43.5785 157.706 43.5785 158.238C43.5785 158.769 43.7522 159.219 44.1099 159.577C44.4574 159.945 44.8969 160.118 45.4283 160.118Z" fill="white"/>
<path d="M56.8546 153.516H57.8255V160.864H56.8546V157.553H53.2878V160.864H52.3066V153.516H53.2878V156.633H56.8546V153.516Z" fill="white"/>
<path d="M63.7329 160.2C63.1912 160.732 62.5371 160.997 61.7706 160.997C61.0041 160.997 60.35 160.732 59.8084 160.2C59.2769 159.669 59.001 159.015 59.001 158.238C59.001 157.461 59.2667 156.807 59.8084 156.276C60.3398 155.744 60.9939 155.478 61.7706 155.478C62.5474 155.478 63.1912 155.744 63.7329 156.276C64.2745 156.807 64.5403 157.461 64.5403 158.238C64.5403 159.015 64.2745 159.669 63.7329 160.2ZM61.7706 160.108C62.2918 160.108 62.7415 159.934 63.089 159.577C63.4467 159.219 63.6205 158.779 63.6205 158.248C63.6205 157.717 63.4467 157.267 63.089 156.919C62.7313 156.562 62.2918 156.388 61.7706 156.388C61.2494 156.388 60.8202 156.562 60.4625 156.919C60.1047 157.277 59.931 157.727 59.931 158.248C59.931 158.779 60.1047 159.229 60.4625 159.577C60.8202 159.934 61.2494 160.108 61.7706 160.108Z" fill="white"/>
<path d="M65.623 160.864V153.199H66.5326V160.864H65.623Z" fill="white"/>
<path d="M72.2766 153.516H73.1862V160.864H72.2766V159.965C71.8167 160.66 71.1627 161.007 70.2939 161.007C69.5581 161.007 68.9347 160.742 68.4134 160.2C67.8922 159.669 67.6367 159.015 67.6367 158.238C67.6367 157.471 67.8922 156.817 68.4134 156.276C68.9347 155.744 69.5581 155.468 70.2939 155.468C71.1627 155.468 71.827 155.816 72.2766 156.511V153.516ZM70.4064 160.118C70.9378 160.118 71.3875 159.934 71.735 159.577C72.0927 159.219 72.2664 158.769 72.2664 158.238C72.2664 157.706 72.0927 157.257 71.735 156.899C71.3773 156.541 70.9378 156.357 70.4064 156.357C69.8851 156.357 69.4355 156.541 69.088 156.899C68.7303 157.257 68.5565 157.706 68.5565 158.238C68.5565 158.769 68.7303 159.219 69.088 159.577C69.4457 159.945 69.8851 160.118 70.4064 160.118Z" fill="white"/>
<path d="M75.2201 158.657C75.312 159.127 75.5267 159.495 75.8639 159.75C76.2012 160.006 76.6202 160.139 77.121 160.139C77.816 160.139 78.3168 159.883 78.6336 159.372L79.4103 159.812C78.8993 160.599 78.1328 160.997 77.1006 160.997C76.2625 160.997 75.588 160.742 75.0668 160.21C74.5455 159.689 74.29 159.025 74.29 158.228C74.29 157.441 74.5455 156.776 75.0565 156.255C75.5676 155.734 76.2319 155.468 77.0392 155.468C77.8058 155.468 78.4394 155.744 78.9197 156.286C79.4103 156.828 79.6454 157.482 79.6454 158.248C79.6454 158.381 79.6352 158.514 79.6147 158.657H75.2201ZM77.0392 156.337C76.5487 156.337 76.1399 156.48 75.8231 156.756C75.5062 157.032 75.3018 157.4 75.2303 157.86H78.7358C78.654 157.359 78.4598 156.981 78.143 156.725C77.816 156.47 77.4583 156.337 77.0392 156.337Z" fill="white"/>
<path d="M81.6073 156.5C81.9037 155.846 82.4556 155.519 83.2426 155.519V156.47C82.7929 156.449 82.4147 156.572 82.0877 156.827C81.7709 157.083 81.6073 157.502 81.6073 158.074V160.854H80.6978V155.601H81.6073V156.5Z" fill="white"/>
<path d="M89.3747 155.478C89.9879 155.478 90.4887 155.673 90.8566 156.061C91.2245 156.449 91.4085 156.981 91.4085 157.645V160.864H90.4989V157.696C90.4989 157.267 90.3865 156.94 90.1514 156.705C89.9163 156.47 89.5995 156.357 89.2009 156.357C88.741 156.357 88.3731 156.5 88.0972 156.787C87.8212 157.073 87.6781 157.502 87.6781 158.095V160.875H86.7686V155.621H87.6781V156.378C88.0461 155.775 88.6184 155.478 89.3747 155.478Z" fill="white"/>
<path d="M97.0301 155.621H97.9397V160.875H97.0301V159.975C96.5702 160.67 95.9161 161.018 95.0474 161.018C94.3115 161.018 93.6881 160.752 93.1669 160.21C92.6456 159.679 92.3901 159.025 92.3901 158.248C92.3901 157.482 92.6456 156.827 93.1669 156.286C93.6881 155.754 94.3115 155.478 95.0474 155.478C95.9161 155.478 96.5804 155.826 97.0301 156.521V155.621ZM95.1598 160.118C95.6912 160.118 96.1409 159.934 96.4884 159.577C96.8461 159.219 97.0198 158.769 97.0198 158.238C97.0198 157.706 96.8461 157.257 96.4884 156.899C96.1307 156.541 95.6912 156.357 95.1598 156.357C94.6386 156.357 94.1889 156.541 93.8414 156.899C93.4837 157.257 93.3099 157.706 93.3099 158.238C93.3099 158.769 93.4837 159.219 93.8414 159.577C94.1991 159.945 94.6386 160.118 95.1598 160.118Z" fill="white"/>
<path d="M105.001 155.478C105.594 155.478 106.064 155.673 106.432 156.051C106.8 156.429 106.974 156.95 106.974 157.604V160.864H106.064V157.635C106.064 157.226 105.962 156.909 105.747 156.695C105.533 156.47 105.257 156.357 104.909 156.357C104.521 156.357 104.204 156.49 103.969 156.746C103.734 157.001 103.622 157.41 103.622 157.952V160.875H102.712V157.645C102.712 157.236 102.61 156.919 102.416 156.705C102.211 156.48 101.945 156.368 101.598 156.368C101.21 156.368 100.893 156.5 100.637 156.766C100.382 157.032 100.249 157.43 100.249 157.962V160.885H99.3394V155.632H100.249V156.337C100.607 155.775 101.128 155.499 101.813 155.499C102.518 155.499 103.029 155.795 103.356 156.388C103.714 155.775 104.265 155.478 105.001 155.478Z" fill="white"/>
<path d="M108.885 158.657C108.977 159.127 109.192 159.495 109.529 159.75C109.866 160.006 110.285 160.139 110.786 160.139C111.481 160.139 111.982 159.883 112.299 159.372L113.075 159.812C112.564 160.599 111.798 160.997 110.766 160.997C109.928 160.997 109.253 160.742 108.732 160.21C108.211 159.689 107.955 159.025 107.955 158.228C107.955 157.441 108.211 156.776 108.722 156.255C109.233 155.734 109.897 155.468 110.704 155.468C111.471 155.468 112.104 155.744 112.585 156.286C113.075 156.828 113.31 157.482 113.31 158.248C113.31 158.381 113.3 158.514 113.28 158.657H108.885ZM110.704 156.337C110.214 156.337 109.805 156.48 109.488 156.756C109.171 157.032 108.967 157.4 108.895 157.86H112.391C112.309 157.359 112.115 156.981 111.798 156.725C111.491 156.47 111.123 156.337 110.704 156.337Z" fill="white"/>
<path d="M252.079 159.945H255.493V160.865H251.108V153.516H255.442V154.436H252.079V156.695H255.176V157.604H252.079V159.945Z" fill="white"/>
<path d="M261.124 160.864H260.051L258.579 158.882L257.107 160.864H256.034L258.048 158.166L256.157 155.622H257.24L258.589 157.441L259.948 155.622H261.022L259.131 158.166L261.124 160.864Z" fill="white"/>
<path d="M264.875 155.479C265.611 155.479 266.234 155.744 266.755 156.286C267.276 156.817 267.532 157.472 267.532 158.248C267.532 159.015 267.276 159.669 266.755 160.211C266.234 160.742 265.611 161.018 264.875 161.018C264.006 161.018 263.342 160.67 262.892 159.975V162.98H261.982V155.632H262.892V156.531C263.342 155.826 264.006 155.479 264.875 155.479ZM264.762 160.119C265.284 160.119 265.723 159.935 266.081 159.577C266.438 159.219 266.612 158.77 266.612 158.238C266.612 157.707 266.438 157.257 266.081 156.899C265.723 156.542 265.284 156.358 264.762 156.358C264.231 156.358 263.781 156.542 263.434 156.899C263.076 157.257 262.902 157.707 262.902 158.238C262.902 158.77 263.076 159.219 263.434 159.577C263.781 159.945 264.231 160.119 264.762 160.119Z" fill="white"/>
<path d="M269.086 154.661C268.912 154.661 268.759 154.6 268.646 154.487C268.534 154.375 268.473 154.222 268.473 154.058C268.473 153.894 268.534 153.741 268.646 153.619C268.759 153.496 268.912 153.435 269.086 153.435C269.249 153.435 269.392 153.496 269.515 153.619C269.638 153.741 269.689 153.884 269.689 154.058C269.689 154.232 269.628 154.375 269.515 154.487C269.403 154.6 269.249 154.661 269.086 154.661ZM268.626 160.865V155.611H269.536V160.865H268.626Z" fill="white"/>
<path d="M271.845 156.501C272.142 155.847 272.693 155.52 273.48 155.52V156.47C273.031 156.45 272.653 156.572 272.325 156.828C272.009 157.083 271.845 157.502 271.845 158.075V160.854H270.936V155.601H271.845V156.501Z" fill="white"/>
<path d="M278.151 155.622H279.132L276.986 161.192C276.761 161.784 276.444 162.244 276.046 162.551C275.647 162.857 275.177 163 274.656 162.97V162.122C275.299 162.173 275.77 161.815 276.066 161.048L276.168 160.854L273.879 155.622H274.86L276.608 159.648L278.151 155.622Z" fill="white"/>
<path d="M285.479 153.516C286.48 153.516 287.308 153.874 287.973 154.579C288.637 155.284 288.964 156.163 288.964 157.185C288.964 158.217 288.637 159.086 287.973 159.791C287.308 160.507 286.48 160.854 285.479 160.854H282.617V153.506H285.479V153.516ZM285.479 159.945C286.225 159.945 286.838 159.679 287.318 159.158C287.799 158.636 288.034 157.982 288.034 157.195C288.034 156.408 287.799 155.754 287.318 155.233C286.838 154.712 286.235 154.446 285.479 154.446H283.588V159.945H285.479Z" fill="white"/>
<path d="M294.401 155.622H295.31V160.875H294.401V159.975C293.941 160.67 293.287 161.018 292.418 161.018C291.682 161.018 291.059 160.752 290.537 160.211C290.016 159.679 289.761 159.025 289.761 158.248C289.761 157.482 290.016 156.828 290.537 156.286C291.059 155.755 291.682 155.479 292.418 155.479C293.287 155.479 293.951 155.826 294.401 156.521V155.622ZM292.541 160.119C293.072 160.119 293.522 159.935 293.869 159.577C294.227 159.219 294.401 158.77 294.401 158.238C294.401 157.707 294.227 157.257 293.869 156.899C293.512 156.542 293.072 156.358 292.541 156.358C292.019 156.358 291.57 156.542 291.222 156.899C290.865 157.257 290.691 157.707 290.691 158.238C290.691 158.77 290.865 159.219 291.222 159.577C291.57 159.945 292.009 160.119 292.541 160.119Z" fill="white"/>
<path d="M299.562 156.501H298.162V159.342C298.162 159.597 298.213 159.781 298.315 159.894C298.417 160.006 298.57 160.057 298.785 160.057C299 160.057 299.255 160.057 299.562 160.047V160.865C298.765 160.967 298.182 160.905 297.814 160.67C297.446 160.435 297.262 159.996 297.262 159.342V156.501H296.22V155.622H297.262V154.426L298.172 154.15V155.622H299.572V156.501H299.562Z" fill="white"/>
<path d="M301.023 158.657C301.115 159.127 301.33 159.495 301.667 159.75C302.004 160.006 302.423 160.139 302.924 160.139C303.619 160.139 304.12 159.883 304.437 159.372L305.214 159.812C304.703 160.599 303.936 160.997 302.904 160.997C302.066 160.997 301.391 160.742 300.87 160.21C300.349 159.689 300.093 159.025 300.093 158.228C300.093 157.441 300.349 156.776 300.86 156.255C301.371 155.734 302.035 155.468 302.842 155.468C303.609 155.468 304.243 155.744 304.723 156.286C305.214 156.828 305.449 157.482 305.449 158.248C305.449 158.381 305.438 158.514 305.418 158.657H301.023ZM302.832 156.337C302.342 156.337 301.933 156.48 301.616 156.756C301.299 157.032 301.095 157.4 301.023 157.86H304.529C304.447 157.359 304.253 156.981 303.936 156.725C303.619 156.47 303.251 156.337 302.832 156.337Z" fill="white"/>
<path d="M258.568 181.284C257.812 182.347 256.739 182.879 255.369 182.879C254 182.879 252.937 182.347 252.171 181.284C251.414 180.221 251.026 178.811 251.026 177.043C251.026 175.275 251.404 173.864 252.171 172.801C252.927 171.739 254 171.207 255.369 171.207C256.739 171.207 257.802 171.739 258.568 172.801C259.325 173.864 259.713 175.275 259.713 177.043C259.713 178.811 259.335 180.221 258.568 181.284ZM253.274 180.272C253.765 181.029 254.47 181.417 255.38 181.417C256.289 181.417 256.994 181.039 257.495 180.272C257.996 179.516 258.241 178.433 258.241 177.043C258.241 175.653 257.996 174.57 257.495 173.803C256.994 173.037 256.289 172.658 255.38 172.658C254.47 172.658 253.765 173.037 253.274 173.803C252.784 174.559 252.538 175.643 252.538 177.043C252.538 178.433 252.784 179.516 253.274 180.272Z" fill="white"/>
<path d="M260.807 182.664V181.448L264.772 177.401C265.835 176.338 266.366 175.428 266.366 174.672C266.366 174.038 266.172 173.548 265.784 173.19C265.395 172.832 264.925 172.659 264.373 172.659C263.311 172.659 262.544 173.159 262.064 174.171L260.807 173.435C261.164 172.71 261.655 172.158 262.278 171.78C262.902 171.401 263.597 171.218 264.363 171.218C265.303 171.218 266.121 171.524 266.816 172.148C267.511 172.771 267.859 173.599 267.859 174.651C267.859 175.786 267.194 177.023 265.855 178.361L262.984 181.213H268.063V182.654H260.807V182.664Z" fill="white"/>
<path d="M270.138 184.248L269.3 184.269L275.728 169.838L276.566 169.817L270.138 184.248Z" fill="white"/>
<path d="M282.239 176.031C283.097 176.195 283.802 176.562 284.344 177.145C284.896 177.728 285.162 178.453 285.162 179.342C285.162 180.436 284.783 181.294 284.037 181.928C283.291 182.562 282.382 182.879 281.309 182.879C280.45 182.879 279.694 182.684 279.029 182.296C278.365 181.908 277.895 181.346 277.619 180.599L278.876 179.864C279.203 180.906 280.021 181.417 281.319 181.417C282.014 181.417 282.586 181.233 283.026 180.875C283.465 180.518 283.68 180.007 283.68 179.353C283.68 178.698 283.465 178.187 283.026 177.82C282.586 177.452 282.014 177.268 281.319 177.268H280.93L280.338 176.348L282.944 172.832H277.946V171.432H284.691L284.681 172.74L282.239 176.031Z" fill="white"/>
<path d="M294.012 181.284C293.255 182.347 292.182 182.879 290.813 182.879C289.443 182.879 288.38 182.347 287.614 181.284C286.858 180.221 286.469 178.811 286.469 177.043C286.469 175.275 286.847 173.864 287.614 172.801C288.37 171.739 289.443 171.207 290.813 171.207C292.182 171.207 293.245 171.739 294.012 172.801C294.768 173.864 295.156 175.275 295.156 177.043C295.156 178.811 294.778 180.221 294.012 181.284ZM288.718 180.272C289.208 181.029 289.913 181.417 290.823 181.417C291.733 181.417 292.438 181.039 292.939 180.272C293.439 179.516 293.685 178.433 293.685 177.043C293.685 175.653 293.439 174.57 292.939 173.803C292.438 173.037 291.733 172.658 290.823 172.658C289.913 172.658 289.208 173.037 288.718 173.803C288.227 174.559 287.982 175.643 287.982 177.043C287.972 178.433 288.217 179.516 288.718 180.272Z" fill="white"/>
<path d="M316.681 33.6039H313.268C312.205 33.6039 311.418 33.9003 310.948 34.9428L304.386 49.8232H309.026C309.026 49.8232 309.793 47.8201 309.956 47.3909H315.618C315.751 47.9632 316.15 49.8232 316.15 49.8232H320.258L316.681 33.6039ZM311.234 44.0693C311.602 43.1393 312.981 39.5316 312.981 39.5316C312.981 39.5214 313.36 38.5811 313.574 37.9884L313.871 39.3885C313.871 39.3885 314.719 43.2517 314.893 44.0795H311.234V44.0693Z" fill="white"/>
<path d="M298.489 38.1007C298.479 38.8672 299.429 39.368 300.983 40.114C303.528 41.2791 304.713 42.6691 304.693 44.5291C304.662 47.8915 301.647 50.0684 296.987 50.0684C295.004 50.048 293.093 49.6494 292.061 49.1997L292.684 45.5613L293.256 45.8271C294.697 46.43 295.648 46.6753 297.416 46.6753C298.683 46.6753 300.042 46.1745 300.053 45.0912C300.063 44.3758 299.48 43.8648 297.763 43.0676C296.077 42.2909 293.859 40.9929 293.88 38.6628C293.9 35.515 296.987 33.3074 301.351 33.3074C303.068 33.3074 304.447 33.6651 305.316 33.9922L304.713 37.5079L304.314 37.3239C303.497 36.9969 302.444 36.6801 301.003 36.7005C299.296 36.7005 298.489 37.4261 298.489 38.1007Z" fill="white"/>
<path d="M292.061 33.5936L289.291 49.8129H284.876L287.635 33.5936H292.061Z" fill="white"/>
<path d="M276.179 41.9435C274.707 38.1927 271.181 35.0756 265.836 33.7777L265.897 33.4506H272.755C273.685 33.4813 274.431 33.7777 274.687 34.769L276.179 41.9435Z" fill="white"/>
<path d="M285.857 33.6039L278.887 49.8028H274.216L270.261 36.2816C273.102 38.1008 275.524 40.9931 276.383 43.0064L276.853 44.6825L281.186 33.6142H285.857V33.6039Z" fill="white"/>
<mask id="mask0_581_6389" style="mask-type:luminance" maskUnits="userSpaceOnUse" x="33" y="17" width="35" height="43">
<path d="M33.1709 17.7469H67.0445V59.7125H33.1709V17.7469Z" fill="white"/>
</mask>
<g mask="url(#mask0_581_6389)">
<path d="M43.6942 29.7824C41.9866 28.7933 41.9867 26.3278 43.6944 25.339C44.4902 24.8782 45.4717 24.8782 46.2675 25.3391L62.5428 34.7646C64.5179 35.9084 66.9902 34.4833 66.9902 32.2009C66.9902 31.1438 66.427 30.1669 65.5123 29.6371L50.8065 21.1206C47.2032 19.0338 42.7589 19.0339 39.1556 21.1208L36.4457 22.6903C34.5343 23.7973 33.3574 25.8389 33.3574 28.0478C33.3574 30.257 34.5346 32.2989 36.4465 33.4058L58.5418 46.1984C60.1109 47.1069 61.0771 48.7826 61.0771 50.5958V54.2805C61.0771 56.5579 63.5436 57.9801 65.5147 56.8393C66.4279 56.3108 66.9902 55.3356 66.9902 54.2805V49.6292C66.9902 45.6966 64.895 42.0618 61.4919 40.0907L43.6942 29.7824Z" fill="white"/>
</g>
<mask id="mask1_581_6389" style="mask-type:luminance" maskUnits="userSpaceOnUse" x="23" y="22" width="35" height="44">
<path d="M23.6631 22.9483H57.4962V65.072H23.6631V22.9483Z" fill="white"/>
</mask>
<g mask="url(#mask1_581_6389)">
<path d="M48.2853 53.3052C49.9932 54.2944 49.9934 56.7602 48.2857 57.7498C47.4895 58.2112 46.5073 58.2113 45.7109 57.7501L29.4366 48.3252C27.4615 47.1813 24.9893 48.6065 24.9893 50.8889C24.9893 51.9459 25.5524 52.9229 26.4671 53.4526L41.1732 61.9693C44.7763 64.056 49.2204 64.0557 52.8233 61.9687L55.5309 60.4002C57.4427 59.2927 58.6197 57.2506 58.6197 55.0411C58.6197 52.8311 57.442 50.7884 55.5293 49.6812L33.4351 36.891C31.8661 35.9828 30.9001 34.3073 30.9001 32.4944V28.8078C30.9001 26.5307 28.4333 25.109 26.463 26.2506C25.5508 26.7791 24.9893 27.7535 24.9893 28.8077V33.4578C24.9893 37.3908 27.0846 41.0258 30.488 42.997L48.2853 53.3052Z" fill="white"/>
</g>
<defs>
<linearGradient id="paint0_linear_581_6389" x1="307.296" y1="243.993" x2="37.7011" y2="-25.6018" gradientUnits="userSpaceOnUse">
<stop stop-color="#1B1464"/>
<stop offset="1" stop-color="#83EFFF"/>
</linearGradient>
<linearGradient id="paint1_linear_581_6389" x1="115.542" y1="110.903" x2="8.36914" y2="3.73024" gradientUnits="userSpaceOnUse">
<stop stop-color="#83EFFF"/>
<stop offset="1" stop-color="#1B1464"/>
</linearGradient>
<linearGradient id="paint2_linear_581_6389" x1="285.929" y1="265.355" x2="43.9171" y2="23.3433" gradientUnits="userSpaceOnUse">
<stop stop-color="#1B1464"/>
<stop offset="1" stop-color="#83EFFF"/>
</linearGradient>
<linearGradient id="paint3_linear_581_6389" x1="356.948" y1="88.9615" x2="253.355" y2="-14.6314" gradientUnits="userSpaceOnUse">
<stop stop-color="#1B1464"/>
<stop offset="1" stop-color="#83EFFF"/>
</linearGradient>
<linearGradient id="paint4_linear_581_6389" x1="197.739" y1="254.664" x2="125.184" y2="182.109" gradientUnits="userSpaceOnUse">
<stop stop-color="#FF9501"/>
<stop offset="1" stop-color="#83EFFF"/>
</linearGradient>
<linearGradient id="paint5_linear_581_6389" x1="281.186" y1="270.102" x2="103.205" y2="92.121" gradientUnits="userSpaceOnUse">
<stop stop-color="#1B1464"/>
<stop offset="1" stop-color="#83EFFF"/>
</linearGradient>
<linearGradient id="paint6_linear_581_6389" x1="37.7043" y1="243.993" x2="307.299" y2="-25.6018" gradientUnits="userSpaceOnUse">
<stop stop-color="#FFC130"/>
<stop offset="1" stop-color="#FEDE33"/>
</linearGradient>
</defs>
</svg>
