<svg width="48" height="48" viewBox="0 0 48 48" fill="none" xmlns="http://www.w3.org/2000/svg">
<rect width="48" height="48" rx="4" fill="white"/>
<path d="M18.0858 36.4148C17.1575 36.4045 16.238 36.2342 15.3675 35.9115C14.7318 35.6766 14.1567 35.3025 13.6842 34.8167C13.1971 34.3452 12.8225 33.7699 12.5882 33.1337C12.2658 32.2632 12.0958 31.3438 12.0856 30.4156C12.0144 28.8725 12 28.4097 12 24.4999C12 20.59 12.0158 20.1289 12.0849 18.5846C12.0963 17.6568 12.2666 16.7378 12.5882 15.8675C12.8236 15.2317 13.1977 14.6564 13.6833 14.1833C14.1552 13.6966 14.7306 13.3224 15.3668 13.0882C16.2373 12.7656 17.1568 12.5953 18.0851 12.5849C19.6286 12.5144 20.0922 12.5 23.9999 12.5C27.9076 12.5 28.3709 12.5158 29.9151 12.5849C30.8432 12.5963 31.7624 12.7665 32.633 13.0882C33.2689 13.3227 33.8441 13.6968 34.3163 14.183C34.8027 14.6553 35.1769 15.2307 35.4115 15.8668C35.7343 16.7372 35.9046 17.6568 35.9151 18.5851C35.9856 20.1293 36 20.5917 36 24.5004C36 28.409 35.9856 28.8714 35.9151 30.4156C35.9039 31.3437 35.7335 32.2631 35.4115 33.1337C35.168 33.765 34.7949 34.3383 34.3163 34.8168C33.8378 35.2952 33.2644 35.6681 32.633 35.9115C31.7625 36.2343 30.843 36.4046 29.9146 36.4151C28.3718 36.4856 27.9081 36.5 23.9994 36.5C20.0907 36.5 19.6284 36.4864 18.0856 36.4151" fill="url(#paint0_radial_574_6737)"/>
<path d="M18.0858 36.4148C17.1575 36.4045 16.238 36.2342 15.3675 35.9115C14.7318 35.6766 14.1567 35.3025 13.6842 34.8167C13.1971 34.3452 12.8225 33.7699 12.5882 33.1337C12.2658 32.2632 12.0958 31.3438 12.0856 30.4156C12.0144 28.8725 12 28.4097 12 24.4999C12 20.59 12.0158 20.1289 12.0849 18.5846C12.0963 17.6568 12.2666 16.7378 12.5882 15.8675C12.8236 15.2317 13.1977 14.6564 13.6833 14.1833C14.1552 13.6966 14.7306 13.3224 15.3668 13.0882C16.2373 12.7656 17.1568 12.5953 18.0851 12.5849C19.6286 12.5144 20.0922 12.5 23.9999 12.5C27.9076 12.5 28.3709 12.5158 29.9151 12.5849C30.8432 12.5963 31.7624 12.7665 32.633 13.0882C33.2689 13.3227 33.8441 13.6968 34.3163 14.183C34.8027 14.6553 35.1769 15.2307 35.4115 15.8668C35.7343 16.7372 35.9046 17.6568 35.9151 18.5851C35.9856 20.1293 36 20.5917 36 24.5004C36 28.409 35.9856 28.8714 35.9151 30.4156C35.9039 31.3437 35.7335 32.2631 35.4115 33.1337C35.168 33.765 34.7949 34.3383 34.3163 34.8168C33.8378 35.2952 33.2644 35.6681 32.633 35.9115C31.7625 36.2343 30.843 36.4046 29.9146 36.4151C28.3718 36.4856 27.9081 36.5 23.9994 36.5C20.0907 36.5 19.6284 36.4864 18.0856 36.4151" fill="url(#paint1_radial_574_6737)"/>
<path d="M21.0528 24.5512C21.0529 23.9634 21.2272 23.3888 21.5538 22.9001C21.8804 22.4113 22.3446 22.0305 22.8877 21.8056C23.4308 21.5807 24.0284 21.5219 24.6049 21.6366C25.1814 21.7514 25.7109 22.0345 26.1265 22.4502C26.5421 22.8659 26.8251 23.3955 26.9397 23.972C27.0543 24.5485 26.9954 25.1461 26.7704 25.6891C26.5453 26.2322 26.1643 26.6963 25.6755 27.0228C25.1868 27.3493 24.6121 27.5235 24.0243 27.5234C23.2361 27.5233 22.4803 27.2101 21.923 26.6527C21.3658 26.0953 21.0528 25.3394 21.0528 24.5512ZM19.446 24.5512C19.446 25.4567 19.7145 26.3419 20.2176 27.0948C20.7207 27.8477 21.4357 28.4345 22.2723 28.781C23.1088 29.1275 24.0294 29.2182 24.9175 29.0415C25.8056 28.8649 26.6214 28.4288 27.2617 27.7885C27.902 27.1482 28.338 26.3325 28.5146 25.4444C28.6913 24.5563 28.6006 23.6357 28.2541 22.7991C27.9076 21.9626 27.3208 21.2475 26.5679 20.7445C25.815 20.2414 24.9298 19.9729 24.0243 19.9729C23.4231 19.9728 22.8277 20.0912 22.2722 20.3213C21.7168 20.5514 21.212 20.8886 20.7869 21.3138C20.3617 21.7389 20.0245 22.2436 19.7944 22.7991C19.5644 23.3546 19.446 23.9499 19.446 24.5512ZM27.7139 19.7915C27.7138 20.0031 27.7765 20.2099 27.894 20.3859C28.0114 20.5619 28.1785 20.6991 28.3739 20.7802C28.5694 20.8612 28.7845 20.8825 28.9921 20.8413C29.1996 20.8002 29.3903 20.6983 29.54 20.5488C29.6897 20.3992 29.7916 20.2086 29.833 20.0011C29.8744 19.7936 29.8533 19.5785 29.7724 19.3829C29.6915 19.1874 29.5545 19.0203 29.3786 18.9026C29.2027 18.785 28.9959 18.7222 28.7843 18.7221C28.5006 18.7222 28.2287 18.8349 28.0281 19.0354C27.8275 19.2359 27.7146 19.5078 27.7144 19.7915M20.4227 31.8088C19.8573 31.8025 19.2972 31.6991 18.7669 31.5029C18.3824 31.3547 18.0331 31.1275 17.7416 30.8362C17.4501 30.5448 17.2229 30.1956 17.0745 29.8111C16.8782 29.2809 16.7747 28.7208 16.7686 28.1554C16.7253 27.2156 16.7169 26.9333 16.7169 24.5524C16.7169 22.1714 16.7263 21.8898 16.7686 20.9491C16.7755 20.3838 16.8789 19.8238 17.0745 19.2933C17.2227 18.9087 17.4499 18.5593 17.7414 18.2678C18.0329 17.9763 18.3823 17.7491 18.7669 17.6009C19.2972 17.4046 19.8573 17.3011 20.4227 17.295C21.3625 17.2517 21.6448 17.2433 24.0248 17.2433C26.4048 17.2433 26.6873 17.2524 27.628 17.2953C28.1934 17.3021 28.7533 17.4056 29.2838 17.6011C29.6685 17.7494 30.0178 17.9766 30.3093 18.2681C30.6008 18.5596 30.828 18.9089 30.9762 19.2936C31.1725 19.8238 31.276 20.384 31.2821 20.9493C31.3254 21.8905 31.3339 22.1714 31.3339 24.5526C31.3339 26.9338 31.3252 27.2152 31.2821 28.1559C31.2755 28.7212 31.1721 29.2812 30.9762 29.8116C30.8279 30.1961 30.6006 30.5453 30.3091 30.8367C30.0176 31.128 29.6684 31.3551 29.2838 31.5033C28.7535 31.6996 28.1934 31.8031 27.628 31.8092C26.6883 31.8525 26.4059 31.861 24.0248 31.861C21.6436 31.861 21.3622 31.8523 20.4227 31.8092M20.3488 15.6896C19.609 15.7042 18.8771 15.8442 18.1841 16.1037C17.5918 16.3328 17.0538 16.683 16.6048 17.1321C16.1557 17.5812 15.8054 18.1191 15.5764 18.7115C15.3169 19.4044 15.1769 20.1364 15.1623 20.8762C15.1183 21.8267 15.1084 22.1307 15.1084 24.5521C15.1084 26.9735 15.1185 27.2773 15.1623 28.2281C15.1769 28.9679 15.3169 29.6998 15.5764 30.3928C15.8054 30.9851 16.1557 31.5231 16.6048 31.9721C17.0538 32.4212 17.5918 32.7715 18.1841 33.0005C18.8771 33.2599 19.609 33.4 20.3488 33.4146C21.2999 33.4579 21.6034 33.4685 24.0248 33.4685C26.4462 33.4685 26.7499 33.4584 27.7007 33.4146C28.4405 33.4 29.1725 33.26 29.8654 33.0005C30.4578 32.7715 30.9957 32.4212 31.4448 31.9721C31.8938 31.5231 32.2441 30.9851 32.4732 30.3928C32.733 29.6999 32.8731 28.9679 32.8873 28.2281C32.9306 27.2768 32.9405 26.9735 32.9405 24.5521C32.9405 22.1307 32.9303 21.827 32.8873 20.8762C32.8727 20.1364 32.7327 19.4044 32.4732 18.7115C32.2441 18.1192 31.894 17.5814 31.445 17.1323C30.9961 16.6833 30.4583 16.3329 29.8661 16.1037C29.1733 15.844 28.4413 15.704 27.7015 15.6896C26.7506 15.6461 26.4469 15.6357 24.026 15.6357C21.605 15.6357 21.3006 15.6459 20.3493 15.6896" fill="white"/>
<defs>
<radialGradient id="paint0_radial_574_6737" cx="0" cy="0" r="1" gradientUnits="userSpaceOnUse" gradientTransform="translate(13.5532 35.9741) scale(30.4708)">
<stop offset="0.09" stop-color="#FA8F21"/>
<stop offset="0.78" stop-color="#D82D7E"/>
</radialGradient>
<radialGradient id="paint1_radial_574_6737" cx="0" cy="0" r="1" gradientUnits="userSpaceOnUse" gradientTransform="translate(28.6238 35.2033) scale(26.8146)">
<stop offset="0.64" stop-color="#8C3AAA" stop-opacity="0"/>
<stop offset="1" stop-color="#8C3AAA"/>
</radialGradient>
</defs>
</svg>
