<svg width="48" height="48" viewBox="0 0 48 48" fill="none" xmlns="http://www.w3.org/2000/svg">
<rect width="48" height="48" rx="4" fill="white"/>
<path d="M24 12.5C17.3725 12.5 12 17.8725 12 24.5C12 31.1275 17.3725 36.5 24 36.5C30.6274 36.5 36 31.1275 36 24.5C36 17.8725 30.6273 12.5 24 12.5ZM20.7984 30.3015H18.1636V21.7894H20.7984V30.3015ZM19.4684 20.6747C18.608 20.6747 17.9104 19.9714 17.9104 19.1041C17.9104 18.2366 18.6081 17.5334 19.4684 17.5334C20.3288 17.5334 21.0264 18.2366 21.0264 19.1041C21.0264 19.9715 20.3289 20.6747 19.4684 20.6747ZM30.672 30.3015H28.05V25.8333C28.05 24.6079 27.5845 23.9238 26.6155 23.9238C25.5609 23.9238 25.01 24.6363 25.01 25.8333V30.3015H22.483V21.7894H25.01V22.9358C25.01 22.9358 25.7701 21.5298 27.575 21.5298C29.3799 21.5298 30.672 22.6319 30.672 24.9118L30.672 30.3015Z" fill="url(#paint0_linear_574_6742)"/>
<defs>
<linearGradient id="paint0_linear_574_6742" x1="15.5147" y1="16.0147" x2="32.4853" y2="32.9853" gradientUnits="userSpaceOnUse">
<stop stop-color="#2489BE"/>
<stop offset="1" stop-color="#0575B3"/>
</linearGradient>
</defs>
</svg>
